<svg width="53" height="53" viewBox="0 0 53 53" fill="none" xmlns="http://www.w3.org/2000/svg">
<path d="M33.8136 24.3536C33.4446 24.3521 33.0793 24.4277 32.7412 24.5755C32.4031 24.7234 32.0996 24.9402 31.8501 25.2121C31.6007 25.484 31.4107 25.8051 31.2925 26.1546C31.1743 26.5042 31.1304 26.8746 31.1636 27.2421H36.6226C36.6578 26.8608 36.61 26.4764 36.4825 26.1153C36.3549 25.7543 36.1506 25.4252 35.8836 25.1506C35.6167 24.8761 35.2934 24.6627 34.936 24.5251C34.5787 24.3875 34.1957 24.329 33.8136 24.3536Z" fill="#042CFF"/>
<path d="M19.8484 27.2952H16.5889V32.4362H19.2389C21.8889 32.4362 23.0549 31.5617 23.0549 29.7862C23.0549 28.0107 21.8359 27.2952 19.8484 27.2952V27.2952Z" fill="#042CFF"/>
<path d="M22.1539 22.5777C22.1539 21.1732 21.2264 20.3252 19.6364 20.3252H16.5889V24.9362H18.8414C21.1999 24.9362 22.1539 24.0882 22.1539 22.5777Z" fill="#042CFF"/>
<path d="M26.5 0C21.2588 0 16.1353 1.5542 11.7774 4.46605C7.4195 7.37791 4.02293 11.5166 2.0172 16.3589C0.0114819 21.2011 -0.513306 26.5294 0.509202 31.6699C1.53171 36.8104 4.05559 41.5322 7.76168 45.2383C11.4678 48.9444 16.1896 51.4683 21.3301 52.4908C26.4706 53.5133 31.7989 52.9885 36.6411 50.9828C41.4834 48.9771 45.6221 45.5805 48.5339 41.2226C51.4458 36.8647 53 31.7412 53 26.5C53 23.02 52.3146 19.574 50.9828 16.3589C49.6511 13.1438 47.6991 10.2224 45.2383 7.76167C42.7776 5.30092 39.8562 3.34894 36.6411 2.01719C33.426 0.685443 29.98 0 26.5 0ZM20.405 34.98H13.25V17.755H20.405C23.5055 17.755 25.546 19.3715 25.546 21.995C25.5826 22.8764 25.3039 23.7419 24.76 24.4364C24.2161 25.1309 23.4425 25.6088 22.578 25.7845C23.1259 25.7972 23.6653 25.9215 24.1635 26.1499C24.6616 26.3783 25.1079 26.706 25.475 27.1128C25.8422 27.5196 26.1224 27.9971 26.2987 28.516C26.4749 29.0348 26.5434 29.5842 26.5 30.1305C26.5 33.2045 23.85 34.98 20.405 34.98ZM29.8125 19.08H37.7625V20.405H29.8125V19.08ZM39.75 29.2825H31.005V29.6535C30.9594 30.0562 31.0007 30.464 31.126 30.8493C31.2514 31.2347 31.4579 31.5888 31.7316 31.8876C32.0053 32.1864 32.3399 32.4231 32.7129 32.5817C33.0858 32.7403 33.4884 32.8171 33.8935 32.807C34.4623 32.8954 35.0439 32.775 35.531 32.4682C36.018 32.1614 36.3776 31.6887 36.5435 31.1375H39.75C39.4645 32.4096 38.7201 33.5318 37.6592 34.2895C36.5984 35.0473 35.2954 35.3875 33.9995 35.245C33.1713 35.3286 32.3347 35.2298 31.5488 34.9553C30.7629 34.6809 30.0467 34.2376 29.4505 33.6566C28.8543 33.0756 28.3927 32.371 28.0982 31.5924C27.8036 30.8138 27.6832 29.9801 27.7455 29.15V27.984C27.6892 27.1796 27.8076 26.3726 28.0924 25.6183C28.3773 24.864 28.8219 24.1802 29.3958 23.6138C29.9698 23.0474 30.6594 22.6119 31.4174 22.3371C32.1755 22.0622 32.984 21.9546 33.7875 22.0215C34.5884 21.9702 35.391 22.091 36.1412 22.3759C36.8915 22.6608 37.572 23.1031 38.137 23.6731C38.7019 24.2431 39.1382 24.9275 39.4165 25.6802C39.6947 26.433 39.8084 27.2366 39.75 28.037V29.2825Z" fill="#042CFF"/>
</svg>
