<svg width="91" height="91" viewBox="0 0 91 91" fill="none" xmlns="http://www.w3.org/2000/svg">
<path fill-rule="evenodd" clip-rule="evenodd" d="M29.0198 63.5736C28.458 61.5986 28.0835 59.069 28.0637 57.7683C28.0873 56.6089 28.1709 55.4519 28.314 54.3031L10.668 70.2985C7.5782 73.0556 3.4332 73.0496 1.48494 70.2826C-0.436303 67.5595 0.550429 63.2584 3.59886 60.663L3.7231 60.5612L36.053 33.0888L17.9389 33.1267V33.1148C14.8653 33.1028 12.8594 30.8086 13.4374 28.0436C14.0046 25.3245 16.8387 23.178 19.7989 23.166H19.8475L55.5824 23.1241L43.8586 12.5509C42.0346 10.8911 42.2921 8.23582 44.3196 6.67378C46.3471 5.11173 49.4495 5.10575 51.2934 6.67378C51.3117 6.68731 51.3275 6.70175 51.3437 6.71649C51.3513 6.72349 51.3591 6.73055 51.3672 6.73761L79.4855 30.649C82.2399 32.9947 84.5927 35.8683 86.4322 39.1335C88.4162 42.6444 89.7136 46.5773 90.2405 50.6783C90.509 52.786 90.5694 54.9199 90.4206 57.0421C90.2647 59.2174 89.8878 61.3663 89.297 63.4479C88.08 67.7069 86.0435 71.6226 83.328 74.9248C80.4115 78.4871 76.8539 81.3331 72.8844 83.2796C68.5616 85.3927 63.89 86.4893 59.1652 86.4999C54.4403 86.5106 49.7648 85.4351 45.4342 83.3415C41.4646 81.414 37.9062 78.5815 34.9907 75.0285C32.2713 71.7375 30.2335 67.828 29.0198 63.5736ZM47.4112 51.0392C47.5787 47.7136 49.0498 44.7831 51.2663 42.7063C53.6052 40.5816 56.5363 39.4204 59.5608 39.4204C62.5854 39.4204 65.5165 40.5816 67.8553 42.7063C70.0701 44.7831 71.5412 47.7136 71.7104 51.0352C71.8779 54.4526 70.6301 57.6185 68.4693 59.9786C66.2528 62.3725 63.0981 63.8747 59.5671 63.8747C56.0362 63.8747 52.8761 62.3725 50.6595 59.9786C48.4772 57.6265 47.242 54.4526 47.4112 51.0392ZM43.3941 34.2178C39.0726 38.2656 36.2079 43.9751 35.8802 50.4567C35.5506 57.1098 37.9526 63.2962 42.2003 67.8905C46.5181 72.5547 52.6762 75.4833 59.5599 75.4833C66.4437 75.4833 72.5891 72.5547 76.9106 67.8905C81.1492 63.3061 83.5656 57.1198 83.2379 50.4607C82.9066 43.9851 80.0455 38.2756 75.724 34.2278C71.4818 30.2379 65.7828 27.8141 59.5599 27.8141C53.337 27.8141 47.6327 30.2439 43.3941 34.2178ZM73.3922 64.99C69.7586 69.0916 64.6701 71.4177 59.1674 71.4297C53.6647 71.4417 48.5636 69.1355 44.93 65.0459C43.2122 63.1355 41.8867 60.8369 41.0443 58.3069C40.2502 55.9006 39.9428 53.3304 40.144 50.778C40.3364 48.2871 41.0009 45.8691 42.0941 43.682C43.1922 41.4945 44.6592 39.5609 46.4155 37.9864C49.9483 34.7945 54.4462 33.0689 59.1512 33.0629C63.8562 33.0569 68.3559 34.7666 71.8923 37.9465C73.6486 39.514 75.1158 41.4417 76.2138 43.6241C77.3072 45.8079 77.9735 48.2223 78.1692 50.7102C78.3691 53.2612 78.0618 55.8299 77.2689 58.2351C76.4289 60.7687 75.1067 63.0725 73.3922 64.99Z" fill="#FF7A00" fill-opacity="0.91"/>
</svg>
