<svg width="115" height="131" viewBox="0 0 115 131" fill="none" xmlns="http://www.w3.org/2000/svg">
<path fill-rule="evenodd" clip-rule="evenodd" d="M41.0198 65.5736C40.458 63.5986 40.0835 61.069 40.0637 59.7683C40.0873 58.6089 40.1709 57.4519 40.314 56.3031L22.668 72.2985C19.5782 75.0556 15.4332 75.0496 13.4849 72.2826C11.5637 69.5595 12.5504 65.2584 15.5989 62.663L15.7231 62.5612L48.053 35.0888L29.9389 35.1267V35.1148C26.8653 35.1028 24.8594 32.8086 25.4374 30.0436C26.0046 27.3245 28.8387 25.178 31.7989 25.166H31.8475L67.5824 25.1241L55.8586 14.5509C54.0346 12.8911 54.2921 10.2358 56.3196 8.67378C58.3471 7.11173 61.4495 7.10575 63.2934 8.67378C63.3117 8.68731 63.3275 8.70175 63.3437 8.71649C63.3513 8.72349 63.3591 8.73055 63.3672 8.73761L91.4855 32.649C94.2399 34.9947 96.5927 37.8683 98.4322 41.1335C100.416 44.6444 101.714 48.5773 102.24 52.6783C102.509 54.786 102.569 56.9199 102.421 59.0421C102.265 61.2174 101.888 63.3663 101.297 65.4479C100.08 69.7069 98.0435 73.6226 95.328 76.9248C92.4115 80.4871 88.8539 83.3331 84.8844 85.2796C80.5616 87.3927 75.89 88.4893 71.1652 88.4999C66.4403 88.5106 61.7648 87.4351 57.4342 85.3415C53.4646 83.414 49.9062 80.5815 46.9907 77.0285C44.2713 73.7375 42.2335 69.828 41.0198 65.5736ZM59.4112 53.0392C59.5787 49.7136 61.0498 46.7831 63.2663 44.7063C65.6052 42.5816 68.5363 41.4204 71.5608 41.4204C74.5854 41.4204 77.5165 42.5816 79.8553 44.7063C82.0701 46.7831 83.5412 49.7136 83.7104 53.0352C83.8779 56.4526 82.6301 59.6185 80.4693 61.9786C78.2528 64.3725 75.0981 65.8747 71.5671 65.8747C68.0362 65.8747 64.8761 64.3725 62.6595 61.9786C60.4772 59.6265 59.242 56.4526 59.4112 53.0392ZM55.3941 36.2178C51.0726 40.2656 48.2079 45.9751 47.8802 52.4567C47.5506 59.1098 49.9526 65.2962 54.2003 69.8905C58.5181 74.5547 64.6762 77.4833 71.5599 77.4833C78.4437 77.4833 84.5891 74.5547 88.9106 69.8905C93.1492 65.3061 95.5656 59.1198 95.2379 52.4607C94.9066 45.9851 92.0455 40.2756 87.724 36.2278C83.4818 32.2379 77.7828 29.8141 71.5599 29.8141C65.337 29.8141 59.6327 32.2439 55.3941 36.2178ZM85.3922 66.99C81.7586 71.0916 76.6701 73.4177 71.1674 73.4297C65.6647 73.4417 60.5636 71.1355 56.93 67.0459C55.2122 65.1355 53.8867 62.8369 53.0443 60.3069C52.2502 57.9006 51.9428 55.3304 52.144 52.778C52.3364 50.2871 53.0009 47.8691 54.0941 45.682C55.1922 43.4945 56.6592 41.5609 58.4155 39.9864C61.9483 36.7945 66.4462 35.0689 71.1512 35.0629C75.8562 35.0569 80.3559 36.7666 83.8923 39.9465C85.6486 41.514 87.1158 43.4417 88.2138 45.6241C89.3072 47.8079 89.9735 50.2223 90.1692 52.7102C90.3691 55.2612 90.0618 57.8299 89.2689 60.2351C88.4289 62.7687 87.1067 65.0725 85.3922 66.99Z" fill="white" fill-opacity="0.5"/>
<path d="M14.3141 115.32C14.8208 115.4 15.2808 115.607 15.6941 115.94C16.1208 116.273 16.4541 116.687 16.6941 117.18C16.9475 117.673 17.0741 118.2 17.0741 118.76C17.0741 119.467 16.8941 120.107 16.5341 120.68C16.1741 121.24 15.6475 121.687 14.9541 122.02C14.2741 122.34 13.4675 122.5 12.5341 122.5H7.33414V108.56H12.3341C13.2808 108.56 14.0875 108.72 14.7541 109.04C15.4208 109.347 15.9208 109.767 16.2541 110.3C16.5875 110.833 16.7541 111.433 16.7541 112.1C16.7541 112.927 16.5275 113.613 16.0741 114.16C15.6341 114.693 15.0475 115.08 14.3141 115.32ZM9.15414 114.58H12.2141C13.0675 114.58 13.7275 114.38 14.1941 113.98C14.6608 113.58 14.8941 113.027 14.8941 112.32C14.8941 111.613 14.6608 111.06 14.1941 110.66C13.7275 110.26 13.0541 110.06 12.1741 110.06H9.15414V114.58ZM12.3741 121C13.2808 121 13.9875 120.787 14.4941 120.36C15.0008 119.933 15.2541 119.34 15.2541 118.58C15.2541 117.807 14.9875 117.2 14.4541 116.76C13.9208 116.307 13.2075 116.08 12.3141 116.08H9.15414V121H12.3741ZM21.0198 107.7V122.5H19.1998V107.7H21.0198ZM33.7216 116.6C33.7216 116.947 33.7016 117.313 33.6616 117.7H24.9016C24.9683 118.78 25.335 119.627 26.0016 120.24C26.6816 120.84 27.5016 121.14 28.4616 121.14C29.2483 121.14 29.9016 120.96 30.4216 120.6C30.955 120.227 31.3283 119.733 31.5416 119.12H33.5016C33.2083 120.173 32.6216 121.033 31.7416 121.7C30.8616 122.353 29.7683 122.68 28.4616 122.68C27.4216 122.68 26.4883 122.447 25.6616 121.98C24.8483 121.513 24.2083 120.853 23.7416 120C23.275 119.133 23.0416 118.133 23.0416 117C23.0416 115.867 23.2683 114.873 23.7216 114.02C24.175 113.167 24.8083 112.513 25.6216 112.06C26.4483 111.593 27.395 111.36 28.4616 111.36C29.5016 111.36 30.4216 111.587 31.2216 112.04C32.0216 112.493 32.635 113.12 33.0616 113.92C33.5016 114.707 33.7216 115.6 33.7216 116.6ZM31.8416 116.22C31.8416 115.527 31.6883 114.933 31.3816 114.44C31.075 113.933 30.655 113.553 30.1216 113.3C29.6016 113.033 29.0216 112.9 28.3816 112.9C27.4616 112.9 26.675 113.193 26.0216 113.78C25.3816 114.367 25.015 115.18 24.9216 116.22H31.8416ZM41.064 111.34C42.3973 111.34 43.4773 111.747 44.304 112.56C45.1307 113.36 45.544 114.52 45.544 116.04V122.5H43.744V116.3C43.744 115.207 43.4706 114.373 42.924 113.8C42.3773 113.213 41.6307 112.92 40.684 112.92C39.724 112.92 38.9573 113.22 38.384 113.82C37.824 114.42 37.544 115.293 37.544 116.44V122.5H35.724V111.54H37.544V113.1C37.904 112.54 38.3906 112.107 39.004 111.8C39.6306 111.493 40.3173 111.34 41.064 111.34ZM47.437 116.98C47.437 115.86 47.6636 114.88 48.117 114.04C48.5703 113.187 49.1903 112.527 49.977 112.06C50.777 111.593 51.6703 111.36 52.657 111.36C53.5103 111.36 54.3036 111.56 55.037 111.96C55.7703 112.347 56.3303 112.86 56.717 113.5V107.7H58.557V122.5H56.717V120.44C56.357 121.093 55.8236 121.633 55.117 122.06C54.4103 122.473 53.5836 122.68 52.637 122.68C51.6636 122.68 50.777 122.44 49.977 121.96C49.1903 121.48 48.5703 120.807 48.117 119.94C47.6636 119.073 47.437 118.087 47.437 116.98ZM56.717 117C56.717 116.173 56.5503 115.453 56.217 114.84C55.8836 114.227 55.4303 113.76 54.857 113.44C54.297 113.107 53.677 112.94 52.997 112.94C52.317 112.94 51.697 113.1 51.137 113.42C50.577 113.74 50.1303 114.207 49.797 114.82C49.4636 115.433 49.297 116.153 49.297 116.98C49.297 117.82 49.4636 118.553 49.797 119.18C50.1303 119.793 50.577 120.267 51.137 120.6C51.697 120.92 52.317 121.08 52.997 121.08C53.677 121.08 54.297 120.92 54.857 120.6C55.4303 120.267 55.8836 119.793 56.217 119.18C56.5503 118.553 56.717 117.827 56.717 117ZM71.2326 116.6C71.2326 116.947 71.2126 117.313 71.1726 117.7H62.4126C62.4792 118.78 62.8459 119.627 63.5126 120.24C64.1926 120.84 65.0126 121.14 65.9726 121.14C66.7592 121.14 67.4126 120.96 67.9326 120.6C68.4659 120.227 68.8392 119.733 69.0526 119.12H71.0126C70.7192 120.173 70.1326 121.033 69.2526 121.7C68.3726 122.353 67.2792 122.68 65.9726 122.68C64.9326 122.68 63.9992 122.447 63.1726 121.98C62.3592 121.513 61.7192 120.853 61.2526 120C60.7859 119.133 60.5526 118.133 60.5526 117C60.5526 115.867 60.7792 114.873 61.2326 114.02C61.6859 113.167 62.3192 112.513 63.1326 112.06C63.9592 111.593 64.9059 111.36 65.9726 111.36C67.0126 111.36 67.9326 111.587 68.7326 112.04C69.5326 112.493 70.1459 113.12 70.5726 113.92C71.0126 114.707 71.2326 115.6 71.2326 116.6ZM69.3526 116.22C69.3526 115.527 69.1992 114.933 68.8926 114.44C68.5859 113.933 68.1659 113.553 67.6326 113.3C67.1126 113.033 66.5326 112.9 65.8926 112.9C64.9726 112.9 64.1859 113.193 63.5326 113.78C62.8926 114.367 62.5259 115.18 62.4326 116.22H69.3526ZM75.0549 113.32C75.3749 112.693 75.8282 112.207 76.4149 111.86C77.0149 111.513 77.7416 111.34 78.5949 111.34V113.22H78.1149C76.0749 113.22 75.0549 114.327 75.0549 116.54V122.5H73.2349V111.54H75.0549V113.32ZM84.8879 111.68C84.9812 110.453 85.4546 109.493 86.3079 108.8C87.1612 108.107 88.2679 107.76 89.6279 107.76C90.5346 107.76 91.3146 107.927 91.9679 108.26C92.6346 108.58 93.1346 109.02 93.4679 109.58C93.8146 110.14 93.9879 110.773 93.9879 111.48C93.9879 112.307 93.7479 113.02 93.2679 113.62C92.8012 114.22 92.1879 114.607 91.4279 114.78V114.88C92.2946 115.093 92.9812 115.513 93.4879 116.14C93.9946 116.767 94.2479 117.587 94.2479 118.6C94.2479 119.36 94.0746 120.047 93.7279 120.66C93.3812 121.26 92.8612 121.733 92.1679 122.08C91.4746 122.427 90.6412 122.6 89.6679 122.6C88.2546 122.6 87.0946 122.233 86.1879 121.5C85.2812 120.753 84.7746 119.7 84.6679 118.34H86.4279C86.5212 119.14 86.8479 119.793 87.4079 120.3C87.9679 120.807 88.7146 121.06 89.6479 121.06C90.5812 121.06 91.2879 120.82 91.7679 120.34C92.2612 119.847 92.5079 119.213 92.5079 118.44C92.5079 117.44 92.1746 116.72 91.5079 116.28C90.8412 115.84 89.8346 115.62 88.4879 115.62H88.0279V114.1H88.5079C89.7346 114.087 90.6612 113.887 91.2879 113.5C91.9146 113.1 92.2279 112.487 92.2279 111.66C92.2279 110.953 91.9946 110.387 91.5279 109.96C91.0746 109.533 90.4212 109.32 89.5679 109.32C88.7412 109.32 88.0746 109.533 87.5679 109.96C87.0612 110.387 86.7612 110.96 86.6679 111.68H84.8879ZM100.945 108.56C102.465 108.56 103.779 108.847 104.885 109.42C106.005 109.98 106.859 110.787 107.445 111.84C108.045 112.893 108.345 114.133 108.345 115.56C108.345 116.987 108.045 118.227 107.445 119.28C106.859 120.32 106.005 121.12 104.885 121.68C103.779 122.227 102.465 122.5 100.945 122.5H96.6052V108.56H100.945ZM100.945 121C102.745 121 104.119 120.527 105.065 119.58C106.012 118.62 106.485 117.28 106.485 115.56C106.485 113.827 106.005 112.473 105.045 111.5C104.099 110.527 102.732 110.04 100.945 110.04H98.4252V121H100.945Z" fill="white"/>
</svg>
