<svg width="115" height="131" viewBox="0 0 115 131" fill="none" xmlns="http://www.w3.org/2000/svg">
<path fill-rule="evenodd" clip-rule="evenodd" d="M41.0198 65.5736C40.458 63.5986 40.0835 61.069 40.0637 59.7683C40.0873 58.6089 40.1709 57.4519 40.314 56.3031L22.668 72.2985C19.5782 75.0556 15.4332 75.0496 13.4849 72.2826C11.5637 69.5595 12.5504 65.2584 15.5989 62.663L15.7231 62.5612L48.053 35.0888L29.9389 35.1267V35.1148C26.8653 35.1028 24.8594 32.8086 25.4374 30.0436C26.0046 27.3245 28.8387 25.178 31.7989 25.166H31.8475L67.5824 25.1241L55.8586 14.5509C54.0346 12.8911 54.2921 10.2358 56.3196 8.67378C58.3471 7.11173 61.4495 7.10575 63.2934 8.67378C63.3117 8.68731 63.3275 8.70175 63.3437 8.71649C63.3513 8.72349 63.3591 8.73055 63.3672 8.73761L91.4855 32.649C94.2399 34.9947 96.5927 37.8683 98.4322 41.1335C100.416 44.6444 101.714 48.5773 102.24 52.6783C102.509 54.786 102.569 56.9199 102.421 59.0421C102.265 61.2174 101.888 63.3663 101.297 65.4479C100.08 69.7069 98.0435 73.6226 95.328 76.9248C92.4115 80.4871 88.8539 83.3331 84.8844 85.2796C80.5616 87.3927 75.89 88.4893 71.1652 88.4999C66.4403 88.5106 61.7648 87.4351 57.4342 85.3415C53.4646 83.414 49.9062 80.5815 46.9907 77.0285C44.2713 73.7375 42.2335 69.828 41.0198 65.5736ZM59.4112 53.0392C59.5787 49.7136 61.0498 46.7831 63.2663 44.7063C65.6052 42.5816 68.5363 41.4204 71.5608 41.4204C74.5854 41.4204 77.5165 42.5816 79.8553 44.7063C82.0701 46.7831 83.5412 49.7136 83.7104 53.0352C83.8779 56.4526 82.6301 59.6185 80.4693 61.9786C78.2528 64.3725 75.0981 65.8747 71.5671 65.8747C68.0362 65.8747 64.8761 64.3725 62.6595 61.9786C60.4772 59.6265 59.242 56.4526 59.4112 53.0392ZM55.3941 36.2178C51.0726 40.2656 48.2079 45.9751 47.8802 52.4567C47.5506 59.1098 49.9526 65.2962 54.2003 69.8905C58.5181 74.5547 64.6762 77.4833 71.5599 77.4833C78.4437 77.4833 84.5891 74.5547 88.9106 69.8905C93.1492 65.3061 95.5656 59.1198 95.2379 52.4607C94.9066 45.9851 92.0455 40.2756 87.724 36.2278C83.4818 32.2379 77.7828 29.8141 71.5599 29.8141C65.337 29.8141 59.6327 32.2439 55.3941 36.2178ZM85.3922 66.99C81.7586 71.0916 76.6701 73.4177 71.1674 73.4297C65.6647 73.4417 60.5636 71.1355 56.93 67.0459C55.2122 65.1355 53.8867 62.8369 53.0443 60.3069C52.2502 57.9006 51.9428 55.3304 52.144 52.778C52.3364 50.2871 53.0009 47.8691 54.0941 45.682C55.1922 43.4945 56.6592 41.5609 58.4155 39.9864C61.9483 36.7945 66.4462 35.0689 71.1512 35.0629C75.8562 35.0569 80.3559 36.7666 83.8923 39.9465C85.6486 41.514 87.1158 43.4417 88.2138 45.6241C89.3072 47.8079 89.9735 50.2223 90.1692 52.7102C90.3691 55.2612 90.0618 57.8299 89.2689 60.2351C88.4289 62.7687 87.1067 65.0725 85.3922 66.99Z" fill="#FF7A00" fill-opacity="0.35"/>
<path d="M22.0824 111.68C22.1758 110.453 22.6491 109.493 23.5024 108.8C24.3558 108.107 25.4624 107.76 26.8224 107.76C27.7291 107.76 28.5091 107.927 29.1624 108.26C29.8291 108.58 30.3291 109.02 30.6624 109.58C31.0091 110.14 31.1824 110.773 31.1824 111.48C31.1824 112.307 30.9424 113.02 30.4624 113.62C29.9958 114.22 29.3824 114.607 28.6224 114.78V114.88C29.4891 115.093 30.1758 115.513 30.6824 116.14C31.1891 116.767 31.4424 117.587 31.4424 118.6C31.4424 119.36 31.2691 120.047 30.9224 120.66C30.5758 121.26 30.0558 121.733 29.3624 122.08C28.6691 122.427 27.8358 122.6 26.8624 122.6C25.4491 122.6 24.2891 122.233 23.3824 121.5C22.4758 120.753 21.9691 119.7 21.8624 118.34H23.6224C23.7158 119.14 24.0424 119.793 24.6024 120.3C25.1624 120.807 25.9091 121.06 26.8424 121.06C27.7758 121.06 28.4824 120.82 28.9624 120.34C29.4558 119.847 29.7024 119.213 29.7024 118.44C29.7024 117.44 29.3691 116.72 28.7024 116.28C28.0358 115.84 27.0291 115.62 25.6824 115.62H25.2224V114.1H25.7024C26.9291 114.087 27.8558 113.887 28.4824 113.5C29.1091 113.1 29.4224 112.487 29.4224 111.66C29.4224 110.953 29.1891 110.387 28.7224 109.96C28.2691 109.533 27.6158 109.32 26.7624 109.32C25.9358 109.32 25.2691 109.533 24.7624 109.96C24.2558 110.387 23.9558 110.96 23.8624 111.68H22.0824ZM42.7198 109.62H35.6998V114.18C36.0064 113.753 36.4598 113.407 37.0598 113.14C37.6598 112.86 38.3064 112.72 38.9998 112.72C40.1064 112.72 41.0064 112.953 41.6998 113.42C42.3931 113.873 42.8864 114.467 43.1798 115.2C43.4864 115.92 43.6398 116.687 43.6398 117.5C43.6398 118.46 43.4598 119.32 43.0998 120.08C42.7398 120.84 42.1864 121.44 41.4398 121.88C40.7064 122.32 39.7931 122.54 38.6998 122.54C37.2998 122.54 36.1664 122.18 35.2998 121.46C34.4331 120.74 33.9064 119.78 33.7198 118.58H35.4998C35.6731 119.34 36.0398 119.933 36.5998 120.36C37.1598 120.787 37.8664 121 38.7198 121C39.7731 121 40.5664 120.687 41.0998 120.06C41.6331 119.42 41.8998 118.58 41.8998 117.54C41.8998 116.5 41.6331 115.7 41.0998 115.14C40.5664 114.567 39.7798 114.28 38.7398 114.28C38.0331 114.28 37.4131 114.453 36.8798 114.8C36.3598 115.133 35.9798 115.593 35.7398 116.18H34.0198V108.02H42.7198V109.62ZM57.6904 103.66L52.2104 125.9H50.4104L55.8704 103.66H57.6904ZM64.1541 109.7V108.04H67.9141V122.5H66.0741V109.7H64.1541ZM70.6404 115.12C70.6404 112.827 71.0137 111.04 71.7604 109.76C72.5071 108.467 73.8137 107.82 75.6804 107.82C77.5337 107.82 78.8337 108.467 79.5804 109.76C80.3271 111.04 80.7004 112.827 80.7004 115.12C80.7004 117.453 80.3271 119.267 79.5804 120.56C78.8337 121.853 77.5337 122.5 75.6804 122.5C73.8137 122.5 72.5071 121.853 71.7604 120.56C71.0137 119.267 70.6404 117.453 70.6404 115.12ZM78.9004 115.12C78.9004 113.96 78.8204 112.98 78.6604 112.18C78.5137 111.367 78.2004 110.713 77.7204 110.22C77.2537 109.727 76.5737 109.48 75.6804 109.48C74.7737 109.48 74.0804 109.727 73.6004 110.22C73.1337 110.713 72.8204 111.367 72.6604 112.18C72.5137 112.98 72.4404 113.96 72.4404 115.12C72.4404 116.32 72.5137 117.327 72.6604 118.14C72.8204 118.953 73.1337 119.607 73.6004 120.1C74.0804 120.593 74.7737 120.84 75.6804 120.84C76.5737 120.84 77.2537 120.593 77.7204 120.1C78.2004 119.607 78.5137 118.953 78.6604 118.14C78.8204 117.327 78.9004 116.32 78.9004 115.12ZM82.799 115.12C82.799 112.827 83.1723 111.04 83.919 109.76C84.6657 108.467 85.9723 107.82 87.839 107.82C89.6923 107.82 90.9923 108.467 91.739 109.76C92.4857 111.04 92.859 112.827 92.859 115.12C92.859 117.453 92.4857 119.267 91.739 120.56C90.9923 121.853 89.6923 122.5 87.839 122.5C85.9723 122.5 84.6657 121.853 83.919 120.56C83.1723 119.267 82.799 117.453 82.799 115.12ZM91.059 115.12C91.059 113.96 90.979 112.98 90.819 112.18C90.6723 111.367 90.359 110.713 89.879 110.22C89.4123 109.727 88.7323 109.48 87.839 109.48C86.9323 109.48 86.239 109.727 85.759 110.22C85.2923 110.713 84.979 111.367 84.819 112.18C84.6723 112.98 84.599 113.96 84.599 115.12C84.599 116.32 84.6723 117.327 84.819 118.14C84.979 118.953 85.2923 119.607 85.759 120.1C86.239 120.593 86.9323 120.84 87.839 120.84C88.7323 120.84 89.4123 120.593 89.879 120.1C90.359 119.607 90.6723 118.953 90.819 118.14C90.979 117.327 91.059 116.32 91.059 115.12Z" fill="white"/>
</svg>
