<svg width="115" height="131" viewBox="0 0 115 131" fill="none" xmlns="http://www.w3.org/2000/svg">
<path fill-rule="evenodd" clip-rule="evenodd" d="M25.2735 83.5029L18.1028 2.5H96.8972L89.7188 83.4896L57.4523 92.5L25.2735 83.5029ZM57.5662 85.6087L83.6067 78.3935L89.708 9.24609H57.5662V18.4636H57.4661H32.7653L33.6393 28.3837H57.5662V29.0696L34.5165 39.0057V39.0059L35.3802 48.9258V48.9259H57.5662L57.5662 64.9614L57.49 64.9729L46.4873 61.9969L45.7685 54.0842H35.8662L37.2481 69.6727L57.4878 75.317L57.5662 75.2983L57.5662 64.9701L68.5174 61.8957L69.6122 48.9259H57.5662L57.5662 39.0061L57.5662 39.0059H57.5659L57.5662 39.0057V29.07L59.156 28.3837L57.5662 28.3837V28.2593V18.4636H82.1378L81.2905 28.3837L57.5668 39.0059H80.3951L77.7387 69.6619L57.5662 75.3062V85.6087Z" fill="white" fill-opacity="0.5"/>
<path d="M39.2971 115.52C39.2971 114.16 39.6038 112.94 40.2171 111.86C40.8304 110.767 41.6638 109.913 42.7171 109.3C43.7838 108.687 44.9638 108.38 46.2571 108.38C47.7771 108.38 49.1038 108.747 50.2371 109.48C51.3704 110.213 52.1971 111.253 52.7171 112.6H50.5371C50.1504 111.76 49.5904 111.113 48.8571 110.66C48.1371 110.207 47.2704 109.98 46.2571 109.98C45.2838 109.98 44.4104 110.207 43.6371 110.66C42.8638 111.113 42.2571 111.76 41.8171 112.6C41.3771 113.427 41.1571 114.4 41.1571 115.52C41.1571 116.627 41.3771 117.6 41.8171 118.44C42.2571 119.267 42.8638 119.907 43.6371 120.36C44.4104 120.813 45.2838 121.04 46.2571 121.04C47.2704 121.04 48.1371 120.82 48.8571 120.38C49.5904 119.927 50.1504 119.28 50.5371 118.44H52.7171C52.1971 119.773 51.3704 120.807 50.2371 121.54C49.1038 122.26 47.7771 122.62 46.2571 122.62C44.9638 122.62 43.7838 122.32 42.7171 121.72C41.6638 121.107 40.8304 120.26 40.2171 119.18C39.6038 118.1 39.2971 116.88 39.2971 115.52ZM59.4463 122.64C58.5263 122.64 57.6997 122.48 56.9663 122.16C56.2463 121.827 55.6797 121.373 55.2663 120.8C54.853 120.213 54.6397 119.54 54.6263 118.78H56.5663C56.633 119.433 56.8997 119.987 57.3663 120.44C57.8463 120.88 58.5397 121.1 59.4463 121.1C60.313 121.1 60.993 120.887 61.4863 120.46C61.993 120.02 62.2463 119.46 62.2463 118.78C62.2463 118.247 62.0997 117.813 61.8063 117.48C61.513 117.147 61.1463 116.893 60.7063 116.72C60.2663 116.547 59.673 116.36 58.9263 116.16C58.0063 115.92 57.2663 115.68 56.7063 115.44C56.1597 115.2 55.6863 114.827 55.2863 114.32C54.8997 113.8 54.7063 113.107 54.7063 112.24C54.7063 111.48 54.8997 110.807 55.2863 110.22C55.673 109.633 56.213 109.18 56.9063 108.86C57.613 108.54 58.4197 108.38 59.3263 108.38C60.633 108.38 61.6997 108.707 62.5263 109.36C63.3663 110.013 63.8397 110.88 63.9463 111.96H61.9463C61.8797 111.427 61.5997 110.96 61.1063 110.56C60.613 110.147 59.9597 109.94 59.1463 109.94C58.3863 109.94 57.7663 110.14 57.2863 110.54C56.8063 110.927 56.5663 111.473 56.5663 112.18C56.5663 112.687 56.7063 113.1 56.9863 113.42C57.2797 113.74 57.633 113.987 58.0463 114.16C58.473 114.32 59.0663 114.507 59.8263 114.72C60.7463 114.973 61.4863 115.227 62.0463 115.48C62.6063 115.72 63.0863 116.1 63.4863 116.62C63.8863 117.127 64.0863 117.82 64.0863 118.7C64.0863 119.38 63.9063 120.02 63.5463 120.62C63.1863 121.22 62.653 121.707 61.9463 122.08C61.2397 122.453 60.4063 122.64 59.4463 122.64ZM70.7846 122.64C69.8646 122.64 69.0379 122.48 68.3046 122.16C67.5846 121.827 67.0179 121.373 66.6046 120.8C66.1913 120.213 65.9779 119.54 65.9646 118.78H67.9046C67.9713 119.433 68.2379 119.987 68.7046 120.44C69.1846 120.88 69.8779 121.1 70.7846 121.1C71.6513 121.1 72.3313 120.887 72.8246 120.46C73.3313 120.02 73.5846 119.46 73.5846 118.78C73.5846 118.247 73.4379 117.813 73.1446 117.48C72.8513 117.147 72.4846 116.893 72.0446 116.72C71.6046 116.547 71.0113 116.36 70.2646 116.16C69.3446 115.92 68.6046 115.68 68.0446 115.44C67.4979 115.2 67.0246 114.827 66.6246 114.32C66.2379 113.8 66.0446 113.107 66.0446 112.24C66.0446 111.48 66.2379 110.807 66.6246 110.22C67.0113 109.633 67.5513 109.18 68.2446 108.86C68.9513 108.54 69.7579 108.38 70.6646 108.38C71.9713 108.38 73.0379 108.707 73.8646 109.36C74.7046 110.013 75.1779 110.88 75.2846 111.96H73.2846C73.2179 111.427 72.9379 110.96 72.4446 110.56C71.9513 110.147 71.2979 109.94 70.4846 109.94C69.7246 109.94 69.1046 110.14 68.6246 110.54C68.1446 110.927 67.9046 111.473 67.9046 112.18C67.9046 112.687 68.0446 113.1 68.3246 113.42C68.6179 113.74 68.9713 113.987 69.3846 114.16C69.8113 114.32 70.4046 114.507 71.1646 114.72C72.0846 114.973 72.8246 115.227 73.3846 115.48C73.9446 115.72 74.4246 116.1 74.8246 116.62C75.2246 117.127 75.4246 117.82 75.4246 118.7C75.4246 119.38 75.2446 120.02 74.8846 120.62C74.5246 121.22 73.9913 121.707 73.2846 122.08C72.5779 122.453 71.7446 122.64 70.7846 122.64Z" fill="white"/>
</svg>
