<svg width="91" height="91" viewBox="0 0 91 91" fill="none" xmlns="http://www.w3.org/2000/svg">
<path fill-rule="evenodd" clip-rule="evenodd" d="M13.1707 81.5029L6 0.5H84.7944L77.616 81.4896L45.3495 90.5L13.1707 81.5029ZM45.4633 83.6087L71.5039 76.3935L77.6051 7.24609H45.4633V16.4636H45.3633H20.6625L21.5365 26.3837H45.4633V27.0696L22.4137 37.0057V37.0059L23.2774 46.9258V46.9259H45.4634L45.4634 62.9614L45.3872 62.9729L34.3845 59.9969L33.6657 52.0842H23.7634L25.1453 67.6727L45.385 73.317L45.4634 73.2983L45.4633 62.9701L56.4146 59.8957L57.5094 46.9259H45.4634L45.4633 37.0061L45.4634 37.0059H45.4631L45.4633 37.0057V27.07L47.0532 26.3837L45.4633 26.3837V26.2593V16.4636H70.035L69.1877 26.3837L45.464 37.0059H68.2922L65.6359 67.6619L45.4633 73.3062V83.6087Z" fill="#FF7A00" fill-opacity="0.91"/>
</svg>
