<svg width="115" height="131" viewBox="0 0 115 131" fill="none" xmlns="http://www.w3.org/2000/svg">
<path fill-rule="evenodd" clip-rule="evenodd" d="M25.1707 83.5029L18 2.5H96.7944L89.616 83.4896L57.3495 92.5L25.1707 83.5029ZM57.4633 85.6087L83.5039 78.3935L89.6051 9.24609H57.4633V18.4636H57.3633H32.6625L33.5365 28.3837H57.4633V29.0696L34.4137 39.0057V39.0059L35.2774 48.9258V48.9259H57.4634L57.4634 64.9614L57.3872 64.9729L46.3845 61.9969L45.6657 54.0842H35.7634L37.1453 69.6727L57.385 75.317L57.4634 75.2983L57.4633 64.9701L68.4146 61.8957L69.5094 48.9259H57.4634L57.4633 39.0061L57.4634 39.0059H57.4631L57.4633 39.0057V29.07L59.0532 28.3837L57.4633 28.3837V28.2593V18.4636H82.035L81.1877 28.3837L57.464 39.0059H80.2922L77.6359 69.6619L57.4633 75.3062V85.6087Z" fill="#FF7A00" fill-opacity="0.75"/>
<path d="M31.4521 109.46L25.8921 122.5H24.0521L29.6921 109.64H21.9721V108.08H31.4521V109.46ZM42.2901 109.62H35.2701V114.18C35.5767 113.753 36.0301 113.407 36.6301 113.14C37.2301 112.86 37.8767 112.72 38.5701 112.72C39.6767 112.72 40.5767 112.953 41.2701 113.42C41.9634 113.873 42.4567 114.467 42.7501 115.2C43.0567 115.92 43.2101 116.687 43.2101 117.5C43.2101 118.46 43.0301 119.32 42.6701 120.08C42.3101 120.84 41.7567 121.44 41.0101 121.88C40.2767 122.32 39.3634 122.54 38.2701 122.54C36.8701 122.54 35.7367 122.18 34.8701 121.46C34.0034 120.74 33.4767 119.78 33.2901 118.58H35.0701C35.2434 119.34 35.6101 119.933 36.1701 120.36C36.7301 120.787 37.4367 121 38.2901 121C39.3434 121 40.1367 120.687 40.6701 120.06C41.2034 119.42 41.4701 118.58 41.4701 117.54C41.4701 116.5 41.2034 115.7 40.6701 115.14C40.1367 114.567 39.3501 114.28 38.3101 114.28C37.6034 114.28 36.9834 114.453 36.4501 114.8C35.9301 115.133 35.5501 115.593 35.3101 116.18H33.5901V108.02H42.2901V109.62ZM57.2607 103.66L51.7807 125.9H49.9807L55.4407 103.66H57.2607ZM63.7245 109.7V108.04H67.4845V122.5H65.6445V109.7H63.7245ZM70.2107 115.12C70.2107 112.827 70.584 111.04 71.3307 109.76C72.0774 108.467 73.384 107.82 75.2507 107.82C77.104 107.82 78.404 108.467 79.1507 109.76C79.8974 111.04 80.2707 112.827 80.2707 115.12C80.2707 117.453 79.8974 119.267 79.1507 120.56C78.404 121.853 77.104 122.5 75.2507 122.5C73.384 122.5 72.0774 121.853 71.3307 120.56C70.584 119.267 70.2107 117.453 70.2107 115.12ZM78.4707 115.12C78.4707 113.96 78.3907 112.98 78.2307 112.18C78.084 111.367 77.7707 110.713 77.2907 110.22C76.824 109.727 76.144 109.48 75.2507 109.48C74.344 109.48 73.6507 109.727 73.1707 110.22C72.704 110.713 72.3907 111.367 72.2307 112.18C72.084 112.98 72.0107 113.96 72.0107 115.12C72.0107 116.32 72.084 117.327 72.2307 118.14C72.3907 118.953 72.704 119.607 73.1707 120.1C73.6507 120.593 74.344 120.84 75.2507 120.84C76.144 120.84 76.824 120.593 77.2907 120.1C77.7707 119.607 78.084 118.953 78.2307 118.14C78.3907 117.327 78.4707 116.32 78.4707 115.12ZM82.3693 115.12C82.3693 112.827 82.7426 111.04 83.4893 109.76C84.236 108.467 85.5426 107.82 87.4093 107.82C89.2626 107.82 90.5626 108.467 91.3093 109.76C92.056 111.04 92.4293 112.827 92.4293 115.12C92.4293 117.453 92.056 119.267 91.3093 120.56C90.5626 121.853 89.2626 122.5 87.4093 122.5C85.5426 122.5 84.236 121.853 83.4893 120.56C82.7426 119.267 82.3693 117.453 82.3693 115.12ZM90.6293 115.12C90.6293 113.96 90.5493 112.98 90.3893 112.18C90.2426 111.367 89.9293 110.713 89.4493 110.22C88.9826 109.727 88.3026 109.48 87.4093 109.48C86.5026 109.48 85.8093 109.727 85.3293 110.22C84.8626 110.713 84.5493 111.367 84.3893 112.18C84.2426 112.98 84.1693 113.96 84.1693 115.12C84.1693 116.32 84.2426 117.327 84.3893 118.14C84.5493 118.953 84.8626 119.607 85.3293 120.1C85.8093 120.593 86.5026 120.84 87.4093 120.84C88.3026 120.84 88.9826 120.593 89.4493 120.1C89.9293 119.607 90.2426 118.953 90.3893 118.14C90.5493 117.327 90.6293 116.32 90.6293 115.12Z" fill="white"/>
</svg>
