<svg width="91" height="90" viewBox="0 0 91 90" fill="none" xmlns="http://www.w3.org/2000/svg">
<g clip-path="url(#clip0_538_330)">
<path fill-rule="evenodd" clip-rule="evenodd" d="M30.6172 0C22.3372 0 15.6172 6.72 15.6172 15C15.6172 23.28 22.3372 30 30.6172 30C22.3372 30 15.6172 36.72 15.6172 45C15.6172 53.28 22.3372 60 30.6172 60C22.3372 60 15.6172 66.72 15.6172 75C15.6172 83.28 22.3372 90 30.6172 90C38.8972 90 45.6172 83.28 45.6172 75L45.6172 45C45.6172 53.28 52.3372 60 60.6172 60C68.8972 60 75.6172 53.28 75.6172 45C75.6172 36.72 68.8972 30 60.6172 30C68.8972 30 75.6172 23.28 75.6172 15C75.6172 6.72 68.8972 0 60.6172 0H30.6172ZM60.6172 30H45.6172L45.6172 45C45.6172 36.72 52.3372 30 60.6172 30Z" fill="#FF7A00" fill-opacity="0.91"/>
</g>
<defs>
<clipPath id="clip0_538_330">
<rect width="90" height="90" fill="white" transform="translate(0.5)"/>
</clipPath>
</defs>
</svg>
