<svg width="115" height="131" viewBox="0 0 115 131" fill="none" xmlns="http://www.w3.org/2000/svg">
<g clip-path="url(#clip0_538_385)">
<path fill-rule="evenodd" clip-rule="evenodd" d="M42.6172 5C34.3372 5 27.6172 11.72 27.6172 20C27.6172 28.28 34.3372 35 42.6172 35C34.3372 35 27.6172 41.72 27.6172 50C27.6172 58.28 34.3372 65 42.6172 65C34.3372 65 27.6172 71.72 27.6172 80C27.6172 88.28 34.3372 95 42.6172 95C50.8972 95 57.6172 88.28 57.6172 80L57.6172 50C57.6172 58.28 64.3372 65 72.6172 65C80.8972 65 87.6172 58.28 87.6172 50C87.6172 41.72 80.8972 35 72.6172 35C80.8972 35 87.6172 28.28 87.6172 20C87.6172 11.72 80.8972 5 72.6172 5H42.6172ZM72.6172 35H57.6172L57.6172 50C57.6172 41.72 64.3372 35 72.6172 35Z" fill="#FF7A00" fill-opacity="0.94"/>
</g>
<path d="M23.58 116.12C23.7133 116.88 24.02 117.467 24.5 117.88C24.9933 118.293 25.6533 118.5 26.48 118.5C27.5867 118.5 28.4 118.067 28.92 117.2C29.4533 116.333 29.7067 114.873 29.68 112.82C29.4 113.42 28.9333 113.893 28.28 114.24C27.6267 114.573 26.9 114.74 26.1 114.74C25.2067 114.74 24.4067 114.56 23.7 114.2C23.0067 113.827 22.46 113.287 22.06 112.58C21.66 111.873 21.46 111.02 21.46 110.02C21.46 108.593 21.8733 107.447 22.7 106.58C23.5267 105.7 24.7 105.26 26.22 105.26C28.0867 105.26 29.3933 105.867 30.14 107.08C30.9 108.293 31.28 110.1 31.28 112.5C31.28 114.18 31.1267 115.567 30.82 116.66C30.5267 117.753 30.02 118.587 29.3 119.16C28.5933 119.733 27.62 120.02 26.38 120.02C25.02 120.02 23.96 119.653 23.2 118.92C22.44 118.187 22.0067 117.253 21.9 116.12H23.58ZM26.4 113.2C27.2933 113.2 28.0267 112.927 28.6 112.38C29.1733 111.82 29.46 111.067 29.46 110.12C29.46 109.12 29.18 108.313 28.62 107.7C28.06 107.087 27.2733 106.78 26.26 106.78C25.3267 106.78 24.58 107.073 24.02 107.66C23.4733 108.247 23.2 109.02 23.2 109.98C23.2 110.953 23.4733 111.733 24.02 112.32C24.5667 112.907 25.36 113.2 26.4 113.2ZM32.9977 116.78V115.4L40.0177 105.68H42.1977V115.2H44.1977V116.78H42.1977V120H40.3977V116.78H32.9977ZM40.4777 107.58L35.0977 115.2H40.4777V107.58ZM57.6478 101.16L52.1678 123.4H50.3678L55.8278 101.16H57.6478ZM64.1116 107.2V105.54H67.8716V120H66.0316V107.2H64.1116ZM70.5978 112.62C70.5978 110.327 70.9711 108.54 71.7178 107.26C72.4645 105.967 73.7711 105.32 75.6378 105.32C77.4911 105.32 78.7911 105.967 79.5378 107.26C80.2845 108.54 80.6578 110.327 80.6578 112.62C80.6578 114.953 80.2845 116.767 79.5378 118.06C78.7911 119.353 77.4911 120 75.6378 120C73.7711 120 72.4645 119.353 71.7178 118.06C70.9711 116.767 70.5978 114.953 70.5978 112.62ZM78.8578 112.62C78.8578 111.46 78.7778 110.48 78.6178 109.68C78.4711 108.867 78.1578 108.213 77.6778 107.72C77.2111 107.227 76.5311 106.98 75.6378 106.98C74.7311 106.98 74.0378 107.227 73.5578 107.72C73.0911 108.213 72.7778 108.867 72.6178 109.68C72.4711 110.48 72.3978 111.46 72.3978 112.62C72.3978 113.82 72.4711 114.827 72.6178 115.64C72.7778 116.453 73.0911 117.107 73.5578 117.6C74.0378 118.093 74.7311 118.34 75.6378 118.34C76.5311 118.34 77.2111 118.093 77.6778 117.6C78.1578 117.107 78.4711 116.453 78.6178 115.64C78.7778 114.827 78.8578 113.82 78.8578 112.62ZM82.7564 112.62C82.7564 110.327 83.1297 108.54 83.8764 107.26C84.6231 105.967 85.9297 105.32 87.7964 105.32C89.6497 105.32 90.9497 105.967 91.6964 107.26C92.4431 108.54 92.8164 110.327 92.8164 112.62C92.8164 114.953 92.4431 116.767 91.6964 118.06C90.9497 119.353 89.6497 120 87.7964 120C85.9297 120 84.6231 119.353 83.8764 118.06C83.1297 116.767 82.7564 114.953 82.7564 112.62ZM91.0164 112.62C91.0164 111.46 90.9364 110.48 90.7764 109.68C90.6297 108.867 90.3164 108.213 89.8364 107.72C89.3697 107.227 88.6897 106.98 87.7964 106.98C86.8897 106.98 86.1964 107.227 85.7164 107.72C85.2497 108.213 84.9364 108.867 84.7764 109.68C84.6297 110.48 84.5564 111.46 84.5564 112.62C84.5564 113.82 84.6297 114.827 84.7764 115.64C84.9364 116.453 85.2497 117.107 85.7164 117.6C86.1964 118.093 86.8897 118.34 87.7964 118.34C88.6897 118.34 89.3697 118.093 89.8364 117.6C90.3164 117.107 90.6297 116.453 90.7764 115.64C90.9364 114.827 91.0164 113.82 91.0164 112.62Z" fill="white"/>
<defs>
<clipPath id="clip0_538_385">
<rect width="90" height="90" fill="white" transform="translate(12.5 5)"/>
</clipPath>
</defs>
</svg>
