<svg width="115" height="131" viewBox="0 0 115 131" fill="none" xmlns="http://www.w3.org/2000/svg">
<g clip-path="url(#clip0_538_348)">
<path fill-rule="evenodd" clip-rule="evenodd" d="M42.6172 5C34.3372 5 27.6172 11.72 27.6172 20C27.6172 28.28 34.3372 35 42.6172 35C34.3372 35 27.6172 41.72 27.6172 50C27.6172 58.28 34.3372 65 42.6172 65C34.3372 65 27.6172 71.72 27.6172 80C27.6172 88.28 34.3372 95 42.6172 95C50.8972 95 57.6172 88.28 57.6172 80L57.6172 50C57.6172 58.28 64.3372 65 72.6172 65C80.8972 65 87.6172 58.28 87.6172 50C87.6172 41.72 80.8972 35 72.6172 35C80.8972 35 87.6172 28.28 87.6172 20C87.6172 11.72 80.8972 5 72.6172 5H42.6172ZM72.6172 35H57.6172L57.6172 50C57.6172 41.72 64.3372 35 72.6172 35Z" fill="white" fill-opacity="0.5"/>
</g>
<path d="M35.92 106.06V107.54H29.86V112.24H34.78V113.72H29.86V120H28.04V106.06H35.92ZM38.6581 107.26C38.3115 107.26 38.0181 107.14 37.7781 106.9C37.5381 106.66 37.4181 106.367 37.4181 106.02C37.4181 105.673 37.5381 105.38 37.7781 105.14C38.0181 104.9 38.3115 104.78 38.6581 104.78C38.9915 104.78 39.2715 104.9 39.4981 105.14C39.7381 105.38 39.8581 105.673 39.8581 106.02C39.8581 106.367 39.7381 106.66 39.4981 106.9C39.2715 107.14 38.9915 107.26 38.6581 107.26ZM39.5381 109.04V120H37.7181V109.04H39.5381ZM46.76 108.86C47.7067 108.86 48.5333 109.067 49.24 109.48C49.96 109.893 50.4933 110.413 50.84 111.04V109.04H52.68V120.24C52.68 121.24 52.4667 122.127 52.04 122.9C51.6133 123.687 51 124.3 50.2 124.74C49.4133 125.18 48.4933 125.4 47.44 125.4C46 125.4 44.8 125.06 43.84 124.38C42.88 123.7 42.3133 122.773 42.14 121.6H43.94C44.14 122.267 44.5533 122.8 45.18 123.2C45.8067 123.613 46.56 123.82 47.44 123.82C48.44 123.82 49.2533 123.507 49.88 122.88C50.52 122.253 50.84 121.373 50.84 120.24V117.94C50.48 118.58 49.9467 119.113 49.24 119.54C48.5333 119.967 47.7067 120.18 46.76 120.18C45.7867 120.18 44.9 119.94 44.1 119.46C43.3133 118.98 42.6933 118.307 42.24 117.44C41.7867 116.573 41.56 115.587 41.56 114.48C41.56 113.36 41.7867 112.38 42.24 111.54C42.6933 110.687 43.3133 110.027 44.1 109.56C44.9 109.093 45.7867 108.86 46.76 108.86ZM50.84 114.5C50.84 113.673 50.6733 112.953 50.34 112.34C50.0067 111.727 49.5533 111.26 48.98 110.94C48.42 110.607 47.8 110.44 47.12 110.44C46.44 110.44 45.82 110.6 45.26 110.92C44.7 111.24 44.2533 111.707 43.92 112.32C43.5867 112.933 43.42 113.653 43.42 114.48C43.42 115.32 43.5867 116.053 43.92 116.68C44.2533 117.293 44.7 117.767 45.26 118.1C45.82 118.42 46.44 118.58 47.12 118.58C47.8 118.58 48.42 118.42 48.98 118.1C49.5533 117.767 50.0067 117.293 50.34 116.68C50.6733 116.053 50.84 115.327 50.84 114.5ZM68.5356 108.84C69.389 108.84 70.149 109.02 70.8156 109.38C71.4823 109.727 72.009 110.253 72.3956 110.96C72.7823 111.667 72.9756 112.527 72.9756 113.54V120H71.1756V113.8C71.1756 112.707 70.9023 111.873 70.3556 111.3C69.8223 110.713 69.0956 110.42 68.1756 110.42C67.229 110.42 66.4756 110.727 65.9156 111.34C65.3556 111.94 65.0756 112.813 65.0756 113.96V120H63.2756V113.8C63.2756 112.707 63.0023 111.873 62.4556 111.3C61.9223 110.713 61.1956 110.42 60.2756 110.42C59.329 110.42 58.5756 110.727 58.0156 111.34C57.4556 111.94 57.1756 112.813 57.1756 113.96V120H55.3556V109.04H57.1756V110.62C57.5356 110.047 58.0156 109.607 58.6156 109.3C59.229 108.993 59.9023 108.84 60.6356 108.84C61.5556 108.84 62.369 109.047 63.0756 109.46C63.7823 109.873 64.309 110.48 64.6556 111.28C64.9623 110.507 65.469 109.907 66.1756 109.48C66.8823 109.053 67.669 108.84 68.5356 108.84ZM74.8811 114.48C74.8811 113.36 75.1078 112.38 75.5611 111.54C76.0144 110.687 76.6344 110.027 77.4211 109.56C78.2211 109.093 79.1078 108.86 80.0811 108.86C81.0411 108.86 81.8744 109.067 82.5811 109.48C83.2878 109.893 83.8144 110.413 84.1611 111.04V109.04H86.0011V120H84.1611V117.96C83.8011 118.6 83.2611 119.133 82.5411 119.56C81.8344 119.973 81.0078 120.18 80.0611 120.18C79.0878 120.18 78.2078 119.94 77.4211 119.46C76.6344 118.98 76.0144 118.307 75.5611 117.44C75.1078 116.573 74.8811 115.587 74.8811 114.48ZM84.1611 114.5C84.1611 113.673 83.9944 112.953 83.6611 112.34C83.3278 111.727 82.8744 111.26 82.3011 110.94C81.7411 110.607 81.1211 110.44 80.4411 110.44C79.7611 110.44 79.1411 110.6 78.5811 110.92C78.0211 111.24 77.5744 111.707 77.2411 112.32C76.9078 112.933 76.7411 113.653 76.7411 114.48C76.7411 115.32 76.9078 116.053 77.2411 116.68C77.5744 117.293 78.0211 117.767 78.5811 118.1C79.1411 118.42 79.7611 118.58 80.4411 118.58C81.1211 118.58 81.7411 118.42 82.3011 118.1C82.8744 117.767 83.3278 117.293 83.6611 116.68C83.9944 116.053 84.1611 115.327 84.1611 114.5Z" fill="white"/>
<defs>
<clipPath id="clip0_538_348">
<rect width="90" height="90" fill="white" transform="translate(12.5 5)"/>
</clipPath>
</defs>
</svg>
