<svg width="91" height="91" viewBox="0 0 91 91" fill="none" xmlns="http://www.w3.org/2000/svg">
<path fill-rule="evenodd" clip-rule="evenodd" d="M88.8025 41.4907L49.5071 2.19754C47.2458 -0.0658453 43.5752 -0.0658453 41.3109 2.19754L33.1513 10.3574L43.5022 20.7085C45.9077 19.8958 48.6658 20.4409 50.5835 22.3586C52.5101 24.2882 53.0512 27.07 52.2188 29.4835L62.1945 39.4594C64.6079 38.6279 67.3926 39.1661 69.3202 41.0967C72.0141 43.7896 72.0141 48.1544 69.3202 50.8494C66.6253 53.5443 62.2606 53.5443 59.5648 50.8494C57.5384 48.821 57.0378 45.8446 58.0638 43.3482L48.7606 34.0448L48.7596 58.5273C49.4163 58.8532 50.0364 59.2867 50.5835 59.8318C53.2774 62.5247 53.2774 66.8895 50.5835 69.5864C47.8886 72.2804 43.5219 72.2804 40.831 69.5864C38.1371 66.8895 38.1371 62.5247 40.831 59.8318C41.4966 59.1672 42.2668 58.6645 43.0884 58.3268V33.6163C42.2668 33.2805 41.4976 32.7808 40.831 32.1113C38.7898 30.0731 38.2991 27.0779 39.3448 24.5716L29.142 14.3667L2.19824 41.309C-0.0660812 43.5743 -0.0660812 47.2449 2.19824 49.5083L41.4936 88.8025C43.756 91.0658 47.4255 91.0658 49.6908 88.8025L88.8025 49.691C91.0658 47.4266 91.0658 43.7541 88.8025 41.4907" fill="#FF7A00" fill-opacity="0.91"/>
</svg>
