<svg width="115" height="131" viewBox="0 0 115 131" fill="none" xmlns="http://www.w3.org/2000/svg">
<path fill-rule="evenodd" clip-rule="evenodd" d="M100.802 43.4907L61.5071 4.19754C59.2458 1.93415 55.5752 1.93415 53.3109 4.19754L45.1513 12.3574L55.5022 22.7085C57.9077 21.8958 60.6658 22.4409 62.5835 24.3586C64.5101 26.2882 65.0512 29.07 64.2188 31.4835L74.1945 41.4594C76.6079 40.6279 79.3926 41.1661 81.3202 43.0967C84.0141 45.7896 84.0141 50.1544 81.3202 52.8494C78.6253 55.5443 74.2606 55.5443 71.5648 52.8494C69.5384 50.821 69.0378 47.8446 70.0638 45.3482L60.7606 36.0448L60.7596 60.5273C61.4163 60.8532 62.0364 61.2867 62.5835 61.8318C65.2774 64.5247 65.2774 68.8895 62.5835 71.5864C59.8886 74.2804 55.5219 74.2804 52.831 71.5864C50.1371 68.8895 50.1371 64.5247 52.831 61.8318C53.4966 61.1672 54.2668 60.6645 55.0884 60.3268V35.6163C54.2668 35.2805 53.4976 34.7808 52.831 34.1113C50.7898 32.0731 50.2991 29.0779 51.3448 26.5716L41.142 16.3667L14.1982 43.309C11.9339 45.5743 11.9339 49.2449 14.1982 51.5083L53.4936 90.8025C55.756 93.0658 59.4255 93.0658 61.6908 90.8025L100.802 51.691C103.066 49.4266 103.066 45.7541 100.802 43.4907Z" fill="white" fill-opacity="0.5"/>
<path d="M56.1133 112.6C55.7266 111.787 55.1666 111.16 54.4333 110.72C53.6999 110.267 52.8466 110.04 51.8733 110.04C50.8999 110.04 50.0199 110.267 49.2333 110.72C48.4599 111.16 47.8466 111.8 47.3933 112.64C46.9533 113.467 46.7333 114.427 46.7333 115.52C46.7333 116.613 46.9533 117.573 47.3933 118.4C47.8466 119.227 48.4599 119.867 49.2333 120.32C50.0199 120.76 50.8999 120.98 51.8733 120.98C53.2333 120.98 54.3533 120.573 55.2333 119.76C56.1133 118.947 56.6266 117.847 56.7733 116.46H51.2133V114.98H58.7133V116.38C58.6066 117.527 58.2466 118.58 57.6333 119.54C57.0199 120.487 56.2133 121.24 55.2133 121.8C54.2133 122.347 53.0999 122.62 51.8733 122.62C50.5799 122.62 49.3999 122.32 48.3333 121.72C47.2666 121.107 46.4199 120.26 45.7933 119.18C45.1799 118.1 44.8733 116.88 44.8733 115.52C44.8733 114.16 45.1799 112.94 45.7933 111.86C46.4199 110.767 47.2666 109.92 48.3333 109.32C49.3999 108.707 50.5799 108.4 51.8733 108.4C53.3533 108.4 54.6599 108.767 55.7933 109.5C56.9399 110.233 57.7733 111.267 58.2933 112.6H56.1133ZM61.6597 109.76C61.313 109.76 61.0197 109.64 60.7797 109.4C60.5397 109.16 60.4197 108.867 60.4197 108.52C60.4197 108.173 60.5397 107.88 60.7797 107.64C61.0197 107.4 61.313 107.28 61.6597 107.28C61.993 107.28 62.273 107.4 62.4997 107.64C62.7397 107.88 62.8597 108.173 62.8597 108.52C62.8597 108.867 62.7397 109.16 62.4997 109.4C62.273 109.64 61.993 109.76 61.6597 109.76ZM62.5397 111.54V122.5H60.7197V111.54H62.5397ZM67.4616 113.04V119.5C67.4616 120.033 67.5749 120.413 67.8016 120.64C68.0282 120.853 68.4216 120.96 68.9816 120.96H70.3216V122.5H68.6816C67.6682 122.5 66.9082 122.267 66.4016 121.8C65.8949 121.333 65.6416 120.567 65.6416 119.5V113.04H64.2216V111.54H65.6416V108.78H67.4616V111.54H70.3216V113.04H67.4616Z" fill="white"/>
</svg>
