<svg width="115" height="131" viewBox="0 0 115 131" fill="none" xmlns="http://www.w3.org/2000/svg">
<path fill-rule="evenodd" clip-rule="evenodd" d="M100.802 43.4907L61.5071 4.19754C59.2458 1.93415 55.5752 1.93415 53.3109 4.19754L45.1513 12.3574L55.5022 22.7085C57.9077 21.8958 60.6658 22.4409 62.5835 24.3586C64.5101 26.2882 65.0512 29.07 64.2188 31.4835L74.1945 41.4594C76.6079 40.6279 79.3926 41.1661 81.3202 43.0967C84.0141 45.7896 84.0141 50.1544 81.3202 52.8494C78.6253 55.5443 74.2606 55.5443 71.5648 52.8494C69.5384 50.821 69.0378 47.8446 70.0638 45.3482L60.7606 36.0448L60.7596 60.5273C61.4163 60.8532 62.0364 61.2867 62.5835 61.8318C65.2774 64.5247 65.2774 68.8895 62.5835 71.5864C59.8886 74.2804 55.5219 74.2804 52.831 71.5864C50.1371 68.8895 50.1371 64.5247 52.831 61.8318C53.4966 61.1672 54.2668 60.6645 55.0884 60.3268V35.6163C54.2668 35.2805 53.4976 34.7808 52.831 34.1113C50.7898 32.0731 50.2991 29.0779 51.3448 26.5716L41.142 16.3667L14.1982 43.309C11.9339 45.5743 11.9339 49.2449 14.1982 51.5083L53.4936 90.8025C55.756 93.0658 59.4255 93.0658 61.6908 90.8025L100.802 51.691C103.066 49.4266 103.066 45.7541 100.802 43.4907Z" fill="#FF7A00" fill-opacity="0.83"/>
<path d="M24.7331 114.98C23.9865 114.687 23.4131 114.26 23.0131 113.7C22.6131 113.14 22.4131 112.46 22.4131 111.66C22.4131 110.94 22.5931 110.293 22.9531 109.72C23.3131 109.133 23.8465 108.673 24.5531 108.34C25.2731 107.993 26.1398 107.82 27.1531 107.82C28.1665 107.82 29.0265 107.993 29.7331 108.34C30.4531 108.673 30.9931 109.133 31.3531 109.72C31.7265 110.293 31.9131 110.94 31.9131 111.66C31.9131 112.433 31.7065 113.113 31.2931 113.7C30.8798 114.273 30.3131 114.7 29.5931 114.98C30.4198 115.233 31.0731 115.68 31.5531 116.32C32.0465 116.947 32.2931 117.707 32.2931 118.6C32.2931 119.467 32.0798 120.227 31.6531 120.88C31.2265 121.52 30.6198 122.02 29.8331 122.38C29.0598 122.727 28.1665 122.9 27.1531 122.9C26.1398 122.9 25.2465 122.727 24.4731 122.38C23.7131 122.02 23.1198 121.52 22.6931 120.88C22.2665 120.227 22.0531 119.467 22.0531 118.6C22.0531 117.707 22.2931 116.94 22.7731 116.3C23.2531 115.66 23.9065 115.22 24.7331 114.98ZM30.1531 111.88C30.1531 111.067 29.8865 110.44 29.3531 110C28.8198 109.56 28.0865 109.34 27.1531 109.34C26.2331 109.34 25.5065 109.56 24.9731 110C24.4398 110.44 24.1731 111.073 24.1731 111.9C24.1731 112.647 24.4465 113.247 24.9931 113.7C25.5531 114.153 26.2731 114.38 27.1531 114.38C28.0465 114.38 28.7665 114.153 29.3131 113.7C29.8731 113.233 30.1531 112.627 30.1531 111.88ZM27.1531 115.78C26.1665 115.78 25.3598 116.013 24.7331 116.48C24.1065 116.933 23.7931 117.62 23.7931 118.54C23.7931 119.393 24.0931 120.08 24.6931 120.6C25.3065 121.12 26.1265 121.38 27.1531 121.38C28.1798 121.38 28.9931 121.12 29.5931 120.6C30.1931 120.08 30.4931 119.393 30.4931 118.54C30.4931 117.647 30.1865 116.967 29.5731 116.5C28.9598 116.02 28.1531 115.78 27.1531 115.78ZM34.2703 111.68C34.3636 110.453 34.837 109.493 35.6903 108.8C36.5436 108.107 37.6503 107.76 39.0103 107.76C39.917 107.76 40.697 107.927 41.3503 108.26C42.017 108.58 42.517 109.02 42.8503 109.58C43.197 110.14 43.3703 110.773 43.3703 111.48C43.3703 112.307 43.1303 113.02 42.6503 113.62C42.1836 114.22 41.5703 114.607 40.8103 114.78V114.88C41.677 115.093 42.3636 115.513 42.8703 116.14C43.377 116.767 43.6303 117.587 43.6303 118.6C43.6303 119.36 43.457 120.047 43.1103 120.66C42.7636 121.26 42.2436 121.733 41.5503 122.08C40.857 122.427 40.0236 122.6 39.0503 122.6C37.637 122.6 36.477 122.233 35.5703 121.5C34.6636 120.753 34.157 119.7 34.0503 118.34H35.8103C35.9036 119.14 36.2303 119.793 36.7903 120.3C37.3503 120.807 38.097 121.06 39.0303 121.06C39.9636 121.06 40.6703 120.82 41.1503 120.34C41.6436 119.847 41.8903 119.213 41.8903 118.44C41.8903 117.44 41.557 116.72 40.8903 116.28C40.2236 115.84 39.217 115.62 37.8703 115.62H37.4103V114.1H37.8903C39.117 114.087 40.0436 113.887 40.6703 113.5C41.297 113.1 41.6103 112.487 41.6103 111.66C41.6103 110.953 41.377 110.387 40.9103 109.96C40.457 109.533 39.8036 109.32 38.9503 109.32C38.1236 109.32 37.457 109.533 36.9503 109.96C36.4436 110.387 36.1436 110.96 36.0503 111.68H34.2703ZM57.7197 103.66L52.2397 125.9H50.4397L55.8997 103.66H57.7197ZM64.1834 109.7V108.04H67.9434V122.5H66.1034V109.7H64.1834ZM70.6697 115.12C70.6697 112.827 71.043 111.04 71.7897 109.76C72.5364 108.467 73.843 107.82 75.7097 107.82C77.563 107.82 78.863 108.467 79.6097 109.76C80.3564 111.04 80.7297 112.827 80.7297 115.12C80.7297 117.453 80.3564 119.267 79.6097 120.56C78.863 121.853 77.563 122.5 75.7097 122.5C73.843 122.5 72.5364 121.853 71.7897 120.56C71.043 119.267 70.6697 117.453 70.6697 115.12ZM78.9297 115.12C78.9297 113.96 78.8497 112.98 78.6897 112.18C78.543 111.367 78.2297 110.713 77.7497 110.22C77.283 109.727 76.603 109.48 75.7097 109.48C74.803 109.48 74.1097 109.727 73.6297 110.22C73.163 110.713 72.8497 111.367 72.6897 112.18C72.543 112.98 72.4697 113.96 72.4697 115.12C72.4697 116.32 72.543 117.327 72.6897 118.14C72.8497 118.953 73.163 119.607 73.6297 120.1C74.1097 120.593 74.803 120.84 75.7097 120.84C76.603 120.84 77.283 120.593 77.7497 120.1C78.2297 119.607 78.543 118.953 78.6897 118.14C78.8497 117.327 78.9297 116.32 78.9297 115.12ZM82.8283 115.12C82.8283 112.827 83.2016 111.04 83.9483 109.76C84.695 108.467 86.0016 107.82 87.8683 107.82C89.7216 107.82 91.0216 108.467 91.7683 109.76C92.515 111.04 92.8883 112.827 92.8883 115.12C92.8883 117.453 92.515 119.267 91.7683 120.56C91.0216 121.853 89.7216 122.5 87.8683 122.5C86.0016 122.5 84.695 121.853 83.9483 120.56C83.2016 119.267 82.8283 117.453 82.8283 115.12ZM91.0883 115.12C91.0883 113.96 91.0083 112.98 90.8483 112.18C90.7016 111.367 90.3883 110.713 89.9083 110.22C89.4416 109.727 88.7616 109.48 87.8683 109.48C86.9616 109.48 86.2683 109.727 85.7883 110.22C85.3216 110.713 85.0083 111.367 84.8483 112.18C84.7016 112.98 84.6283 113.96 84.6283 115.12C84.6283 116.32 84.7016 117.327 84.8483 118.14C85.0083 118.953 85.3216 119.607 85.7883 120.1C86.2683 120.593 86.9616 120.84 87.8683 120.84C88.7616 120.84 89.4416 120.593 89.9083 120.1C90.3883 119.607 90.7016 118.953 90.8483 118.14C91.0083 117.327 91.0883 116.32 91.0883 115.12Z" fill="white"/>
</svg>
