<svg width="115" height="131" viewBox="0 0 115 131" fill="none" xmlns="http://www.w3.org/2000/svg">
<path fill-rule="evenodd" clip-rule="evenodd" d="M57.5004 4.60938C33.233 4.60938 13.5547 24.2841 13.5547 48.5551C13.5547 67.9714 26.1465 84.4441 43.6074 90.255C45.8037 90.6618 46.61 89.3017 46.61 88.1409C46.61 87.093 46.5692 83.6312 46.5503 79.9592C34.3246 82.6175 31.7448 74.7741 31.7448 74.7741C29.7458 69.6946 26.8654 68.344 26.8654 68.344C22.8783 65.6165 27.166 65.6725 27.166 65.6725C31.5789 65.9825 33.9025 70.2011 33.9025 70.2011C37.822 76.9195 44.1831 74.9772 46.6908 73.8543C47.0852 71.014 48.2241 69.0754 49.4809 67.978C39.7199 66.8667 29.4591 63.0986 29.4591 46.2598C29.4591 41.4619 31.1757 37.5417 33.9869 34.4642C33.5307 33.3573 32.0265 28.8876 34.4127 22.8344C34.4127 22.8344 38.1029 21.6534 46.5008 27.339C50.0063 26.3654 53.7657 25.8771 57.5004 25.8603C61.235 25.8771 64.9974 26.3654 68.5093 27.339C76.8971 21.6534 80.5822 22.8344 80.5822 22.8344C82.9743 28.8876 81.4693 33.3573 81.0131 34.4642C83.8308 37.5417 85.5359 41.4619 85.5359 46.2598C85.5359 63.1386 75.2553 66.8551 65.4696 67.943C67.0459 69.3068 68.4504 71.9811 68.4504 76.0811C68.4504 81.9611 68.3995 86.6935 68.3995 88.1409C68.3995 89.3104 69.1905 90.6807 71.418 90.2492C88.8696 84.4317 101.445 67.9649 101.445 48.5551C101.445 24.2841 81.7699 4.60938 57.5004 4.60938ZM30.0138 67.2109C29.917 67.4292 29.5735 67.4947 29.2606 67.3448C28.9418 67.2015 28.7628 66.9038 28.8662 66.6848C28.9608 66.4599 29.305 66.3973 29.623 66.548C29.9425 66.6913 30.1244 66.9919 30.0138 67.2109ZM32.1754 69.1397C31.9658 69.334 31.5561 69.2438 31.2781 68.9367C30.9907 68.6303 30.9368 68.2206 31.1493 68.0234C31.3655 67.8291 31.7628 67.9201 32.051 68.2264C32.3384 68.5364 32.3945 68.9432 32.1754 69.1397ZM33.6584 71.6076C33.3891 71.7946 32.9488 71.6192 32.6767 71.2284C32.4074 70.8376 32.4074 70.369 32.6825 70.1812C32.9554 69.9935 33.3891 70.1623 33.6649 70.5502C33.9335 70.9475 33.9335 71.4162 33.6584 71.6076ZM36.1664 74.4657C35.9255 74.7313 35.4125 74.66 35.037 74.2976C34.6527 73.9432 34.5458 73.4403 34.7874 73.1747C35.0311 72.9083 35.5471 72.9833 35.9255 73.3428C36.3068 73.6965 36.4233 74.2029 36.1664 74.4657ZM39.4078 75.4305C39.3015 75.7747 38.8074 75.9312 38.3096 75.7849C37.8126 75.6343 37.4873 75.2311 37.5877 74.8833C37.6911 74.5369 38.1874 74.3739 38.6888 74.5303C39.1851 74.6802 39.5111 75.0805 39.4078 75.4305ZM43.0966 75.8398C43.1089 76.2022 42.6869 76.5027 42.1643 76.5093C41.6389 76.5209 41.2139 76.2277 41.2081 75.8711C41.2081 75.505 41.6207 75.2074 42.1462 75.1987C42.6687 75.1885 43.0966 75.4796 43.0966 75.8398ZM46.7204 75.7009C46.783 76.0546 46.4199 76.4177 45.901 76.5145C45.3909 76.6076 44.9186 76.3893 44.8538 76.0386C44.7905 75.6761 45.1602 75.313 45.6696 75.2191C46.1892 75.1289 46.6542 75.3414 46.7204 75.7009Z" fill="#FF7A00" fill-opacity="0.86"/>
<path d="M24.2741 114.98C23.5275 114.687 22.9541 114.26 22.5541 113.7C22.1541 113.14 21.9541 112.46 21.9541 111.66C21.9541 110.94 22.1341 110.293 22.4941 109.72C22.8541 109.133 23.3875 108.673 24.0941 108.34C24.8141 107.993 25.6808 107.82 26.6941 107.82C27.7075 107.82 28.5675 107.993 29.2741 108.34C29.9941 108.673 30.5341 109.133 30.8941 109.72C31.2675 110.293 31.4541 110.94 31.4541 111.66C31.4541 112.433 31.2475 113.113 30.8341 113.7C30.4208 114.273 29.8541 114.7 29.1341 114.98C29.9608 115.233 30.6141 115.68 31.0941 116.32C31.5875 116.947 31.8341 117.707 31.8341 118.6C31.8341 119.467 31.6208 120.227 31.1941 120.88C30.7675 121.52 30.1608 122.02 29.3741 122.38C28.6008 122.727 27.7075 122.9 26.6941 122.9C25.6808 122.9 24.7875 122.727 24.0141 122.38C23.2541 122.02 22.6608 121.52 22.2341 120.88C21.8075 120.227 21.5941 119.467 21.5941 118.6C21.5941 117.707 21.8341 116.94 22.3141 116.3C22.7941 115.66 23.4475 115.22 24.2741 114.98ZM29.6941 111.88C29.6941 111.067 29.4275 110.44 28.8941 110C28.3608 109.56 27.6275 109.34 26.6941 109.34C25.7741 109.34 25.0475 109.56 24.5141 110C23.9808 110.44 23.7141 111.073 23.7141 111.9C23.7141 112.647 23.9875 113.247 24.5341 113.7C25.0941 114.153 25.8141 114.38 26.6941 114.38C27.5875 114.38 28.3075 114.153 28.8541 113.7C29.4141 113.233 29.6941 112.627 29.6941 111.88ZM26.6941 115.78C25.7075 115.78 24.9008 116.013 24.2741 116.48C23.6475 116.933 23.3341 117.62 23.3341 118.54C23.3341 119.393 23.6341 120.08 24.2341 120.6C24.8475 121.12 25.6675 121.38 26.6941 121.38C27.7208 121.38 28.5341 121.12 29.1341 120.6C29.7341 120.08 30.0341 119.393 30.0341 118.54C30.0341 117.647 29.7275 116.967 29.1141 116.5C28.5008 116.02 27.6941 115.78 26.6941 115.78ZM41.9113 111.48C41.618 110 40.7047 109.26 39.1713 109.26C37.9847 109.26 37.098 109.72 36.5113 110.64C35.9247 111.547 35.638 113.047 35.6513 115.14C35.958 114.447 36.4647 113.907 37.1713 113.52C37.8913 113.12 38.6913 112.92 39.5713 112.92C40.9447 112.92 42.038 113.347 42.8513 114.2C43.678 115.053 44.0913 116.233 44.0913 117.74C44.0913 118.647 43.9113 119.46 43.5513 120.18C43.2047 120.9 42.6713 121.473 41.9513 121.9C41.2447 122.327 40.3847 122.54 39.3713 122.54C37.998 122.54 36.9247 122.233 36.1513 121.62C35.378 121.007 34.838 120.16 34.5313 119.08C34.2247 118 34.0713 116.667 34.0713 115.08C34.0713 110.187 35.778 107.74 39.1913 107.74C40.498 107.74 41.5247 108.093 42.2713 108.8C43.018 109.507 43.458 110.4 43.5913 111.48H41.9113ZM39.1913 114.46C38.618 114.46 38.078 114.58 37.5713 114.82C37.0647 115.047 36.6513 115.4 36.3313 115.88C36.0247 116.347 35.8713 116.92 35.8713 117.6C35.8713 118.613 36.1647 119.44 36.7513 120.08C37.338 120.707 38.178 121.02 39.2713 121.02C40.2047 121.02 40.9447 120.733 41.4913 120.16C42.0513 119.573 42.3313 118.787 42.3313 117.8C42.3313 116.76 42.0647 115.947 41.5313 115.36C40.998 114.76 40.218 114.46 39.1913 114.46ZM58.1787 103.66L52.6987 125.9H50.8987L56.3587 103.66H58.1787ZM64.6424 109.7V108.04H68.4024V122.5H66.5624V109.7H64.6424ZM71.1287 115.12C71.1287 112.827 71.502 111.04 72.2487 109.76C72.9953 108.467 74.302 107.82 76.1687 107.82C78.022 107.82 79.322 108.467 80.0687 109.76C80.8153 111.04 81.1887 112.827 81.1887 115.12C81.1887 117.453 80.8153 119.267 80.0687 120.56C79.322 121.853 78.022 122.5 76.1687 122.5C74.302 122.5 72.9953 121.853 72.2487 120.56C71.502 119.267 71.1287 117.453 71.1287 115.12ZM79.3887 115.12C79.3887 113.96 79.3087 112.98 79.1487 112.18C79.002 111.367 78.6887 110.713 78.2087 110.22C77.742 109.727 77.062 109.48 76.1687 109.48C75.262 109.48 74.5687 109.727 74.0887 110.22C73.622 110.713 73.3087 111.367 73.1487 112.18C73.002 112.98 72.9287 113.96 72.9287 115.12C72.9287 116.32 73.002 117.327 73.1487 118.14C73.3087 118.953 73.622 119.607 74.0887 120.1C74.5687 120.593 75.262 120.84 76.1687 120.84C77.062 120.84 77.742 120.593 78.2087 120.1C78.6887 119.607 79.002 118.953 79.1487 118.14C79.3087 117.327 79.3887 116.32 79.3887 115.12ZM83.2873 115.12C83.2873 112.827 83.6606 111.04 84.4073 109.76C85.1539 108.467 86.4606 107.82 88.3273 107.82C90.1806 107.82 91.4806 108.467 92.2273 109.76C92.9739 111.04 93.3473 112.827 93.3473 115.12C93.3473 117.453 92.9739 119.267 92.2273 120.56C91.4806 121.853 90.1806 122.5 88.3273 122.5C86.4606 122.5 85.1539 121.853 84.4073 120.56C83.6606 119.267 83.2873 117.453 83.2873 115.12ZM91.5473 115.12C91.5473 113.96 91.4673 112.98 91.3073 112.18C91.1606 111.367 90.8473 110.713 90.3673 110.22C89.9006 109.727 89.2206 109.48 88.3273 109.48C87.4206 109.48 86.7273 109.727 86.2473 110.22C85.7806 110.713 85.4673 111.367 85.3073 112.18C85.1606 112.98 85.0873 113.96 85.0873 115.12C85.0873 116.32 85.1606 117.327 85.3073 118.14C85.4673 118.953 85.7806 119.607 86.2473 120.1C86.7273 120.593 87.4206 120.84 88.3273 120.84C89.2206 120.84 89.9006 120.593 90.3673 120.1C90.8473 119.607 91.1606 118.953 91.3073 118.14C91.4673 117.327 91.5473 116.32 91.5473 115.12Z" fill="white"/>
</svg>
