<svg width="90" height="90" viewBox="0 0 90 90" fill="none" xmlns="http://www.w3.org/2000/svg">
<path fill-rule="evenodd" clip-rule="evenodd" d="M90 45.0002C90 20.1487 69.854 0 44.9998 0C20.146 0 0 20.149 0 45.0002C0 69.8513 20.1457 90 44.9998 90C69.854 90 90 69.8516 90 45.0002ZM13 45.7871C13 28.2327 27.2247 14 44.7871 14C62.3415 14 76.5742 28.2327 76.5742 45.7871C76.5742 59.8131 67.4751 71.7333 54.7576 75.9027C53.1285 76.2206 52.5723 75.2272 52.5723 74.3928C52.5723 74.0518 52.5766 73.4509 52.5824 72.646C52.5942 71.0124 52.612 68.5383 52.612 65.6884C52.612 62.7111 51.5789 60.7614 50.4664 59.8078C57.539 59.0264 64.9692 56.3378 64.9692 44.1262C64.9692 40.6561 63.7375 37.8218 61.7111 35.5967C62.0289 34.7941 63.1017 31.5624 61.3932 27.1837C61.3932 27.1837 58.731 26.3307 52.6915 30.4419C50.1485 29.7346 47.4466 29.3849 44.7447 29.3691C42.0428 29.3849 39.3409 29.7346 36.7979 30.4419C30.7187 26.3307 28.0565 27.1837 28.0565 27.1837C26.3479 31.5624 27.4207 34.7941 27.7784 35.5967C25.7387 37.8218 24.5069 40.6561 24.5069 44.1262C24.5069 56.306 31.9266 59.0396 38.9859 59.8343C38.0774 60.629 37.2589 62.0303 36.9727 64.0858C35.1556 64.8991 30.5491 66.303 27.7148 61.4422C27.7148 61.4422 26.038 58.3907 22.846 58.1682C22.846 58.1682 19.7442 58.1284 22.6235 60.0992C22.6235 60.0992 24.7135 61.0793 26.1599 64.7481C26.1599 64.7481 28.0247 70.9307 36.8668 69.0128C36.8741 70.4839 36.8856 71.7548 36.8943 72.7235C36.9013 73.4991 36.9065 74.0809 36.9065 74.4166C36.9065 75.2617 36.3238 76.2444 34.7344 75.9451C22.107 71.7465 13 59.8343 13 45.7871Z" fill="#8500FF"/>
</svg>
