<svg width="115" height="131" viewBox="0 0 115 131" fill="none" xmlns="http://www.w3.org/2000/svg">
<path fill-rule="evenodd" clip-rule="evenodd" d="M57.5004 4.60938C33.233 4.60938 13.5547 24.2841 13.5547 48.5551C13.5547 67.9714 26.1465 84.4441 43.6074 90.255C45.8037 90.6618 46.61 89.3017 46.61 88.1409C46.61 87.093 46.5692 83.6312 46.5503 79.9592C34.3246 82.6175 31.7448 74.7741 31.7448 74.7741C29.7458 69.6946 26.8654 68.344 26.8654 68.344C22.8783 65.6165 27.166 65.6725 27.166 65.6725C31.5789 65.9825 33.9025 70.2011 33.9025 70.2011C37.822 76.9195 44.1831 74.9772 46.6908 73.8543C47.0852 71.014 48.2241 69.0754 49.4809 67.978C39.7199 66.8667 29.4591 63.0986 29.4591 46.2598C29.4591 41.4619 31.1757 37.5417 33.9869 34.4642C33.5307 33.3573 32.0265 28.8876 34.4127 22.8344C34.4127 22.8344 38.1029 21.6534 46.5008 27.339C50.0063 26.3654 53.7657 25.8771 57.5004 25.8603C61.235 25.8771 64.9974 26.3654 68.5093 27.339C76.8971 21.6534 80.5822 22.8344 80.5822 22.8344C82.9743 28.8876 81.4693 33.3573 81.0131 34.4642C83.8308 37.5417 85.5359 41.4619 85.5359 46.2598C85.5359 63.1386 75.2553 66.8551 65.4696 67.943C67.0459 69.3068 68.4504 71.9811 68.4504 76.0811C68.4504 81.9611 68.3995 86.6935 68.3995 88.1409C68.3995 89.3104 69.1905 90.6807 71.418 90.2492C88.8696 84.4317 101.445 67.9649 101.445 48.5551C101.445 24.2841 81.7699 4.60938 57.5004 4.60938ZM30.0138 67.2109C29.917 67.4292 29.5735 67.4947 29.2606 67.3448C28.9418 67.2015 28.7628 66.9038 28.8662 66.6848C28.9608 66.4599 29.305 66.3973 29.623 66.548C29.9425 66.6913 30.1244 66.9919 30.0138 67.2109ZM32.1754 69.1397C31.9658 69.334 31.5561 69.2438 31.2781 68.9367C30.9907 68.6303 30.9368 68.2206 31.1493 68.0234C31.3655 67.8291 31.7628 67.9201 32.051 68.2264C32.3384 68.5364 32.3945 68.9432 32.1754 69.1397ZM33.6584 71.6076C33.3891 71.7946 32.9488 71.6192 32.6767 71.2284C32.4074 70.8376 32.4074 70.369 32.6825 70.1812C32.9554 69.9935 33.3891 70.1623 33.6649 70.5502C33.9335 70.9475 33.9335 71.4162 33.6584 71.6076ZM36.1664 74.4657C35.9255 74.7313 35.4125 74.66 35.037 74.2976C34.6527 73.9432 34.5458 73.4403 34.7874 73.1747C35.0311 72.9083 35.5471 72.9833 35.9255 73.3428C36.3068 73.6965 36.4233 74.2029 36.1664 74.4657ZM39.4078 75.4305C39.3015 75.7747 38.8074 75.9312 38.3096 75.7849C37.8126 75.6343 37.4873 75.2311 37.5877 74.8833C37.6911 74.5369 38.1874 74.3739 38.6888 74.5303C39.1851 74.6802 39.5111 75.0805 39.4078 75.4305ZM43.0966 75.8398C43.1089 76.2022 42.6869 76.5027 42.1643 76.5093C41.6389 76.5209 41.2139 76.2277 41.2081 75.8711C41.2081 75.505 41.6207 75.2074 42.1462 75.1987C42.6687 75.1885 43.0966 75.4796 43.0966 75.8398ZM46.7204 75.7009C46.783 76.0546 46.4199 76.4177 45.901 76.5145C45.3909 76.6076 44.9186 76.3893 44.8538 76.0386C44.7905 75.6761 45.1602 75.313 45.6696 75.2191C46.1892 75.1289 46.6542 75.3414 46.7204 75.7009Z" fill="white" fill-opacity="0.5"/>
<path d="M36.6352 112.6C36.2485 111.787 35.6885 111.16 34.9552 110.72C34.2218 110.267 33.3685 110.04 32.3952 110.04C31.4218 110.04 30.5418 110.267 29.7552 110.72C28.9818 111.16 28.3685 111.8 27.9152 112.64C27.4752 113.467 27.2552 114.427 27.2552 115.52C27.2552 116.613 27.4752 117.573 27.9152 118.4C28.3685 119.227 28.9818 119.867 29.7552 120.32C30.5418 120.76 31.4218 120.98 32.3952 120.98C33.7552 120.98 34.8752 120.573 35.7552 119.76C36.6352 118.947 37.1485 117.847 37.2952 116.46H31.7352V114.98H39.2352V116.38C39.1285 117.527 38.7685 118.58 38.1552 119.54C37.5418 120.487 36.7352 121.24 35.7352 121.8C34.7352 122.347 33.6218 122.62 32.3952 122.62C31.1018 122.62 29.9218 122.32 28.8552 121.72C27.7885 121.107 26.9418 120.26 26.3152 119.18C25.7018 118.1 25.3952 116.88 25.3952 115.52C25.3952 114.16 25.7018 112.94 26.3152 111.86C26.9418 110.767 27.7885 109.92 28.8552 109.32C29.9218 108.707 31.1018 108.4 32.3952 108.4C33.8752 108.4 35.1818 108.767 36.3152 109.5C37.4618 110.233 38.2952 111.267 38.8152 112.6H36.6352ZM42.1816 109.76C41.8349 109.76 41.5416 109.64 41.3016 109.4C41.0616 109.16 40.9416 108.867 40.9416 108.52C40.9416 108.173 41.0616 107.88 41.3016 107.64C41.5416 107.4 41.8349 107.28 42.1816 107.28C42.5149 107.28 42.7949 107.4 43.0216 107.64C43.2616 107.88 43.3816 108.173 43.3816 108.52C43.3816 108.867 43.2616 109.16 43.0216 109.4C42.7949 109.64 42.5149 109.76 42.1816 109.76ZM43.0616 111.54V122.5H41.2416V111.54H43.0616ZM47.9834 113.04V119.5C47.9834 120.033 48.0968 120.413 48.3234 120.64C48.5501 120.853 48.9434 120.96 49.5034 120.96H50.8434V122.5H49.2034C48.1901 122.5 47.4301 122.267 46.9234 121.8C46.4168 121.333 46.1634 120.567 46.1634 119.5V113.04H44.7434V111.54H46.1634V108.78H47.9834V111.54H50.8434V113.04H47.9834ZM63.3886 108.56V122.5H61.5686V116.18H54.4686V122.5H52.6486V108.56H54.4686V114.68H61.5686V108.56H63.3886ZM75.8163 111.54V122.5H73.9963V120.88C73.6496 121.44 73.1629 121.88 72.5363 122.2C71.9229 122.507 71.2429 122.66 70.4963 122.66C69.6429 122.66 68.8763 122.487 68.1963 122.14C67.5163 121.78 66.9763 121.247 66.5763 120.54C66.1896 119.833 65.9963 118.973 65.9963 117.96V111.54H67.7963V117.72C67.7963 118.8 68.0696 119.633 68.6163 120.22C69.1629 120.793 69.9096 121.08 70.8563 121.08C71.8296 121.08 72.5963 120.78 73.1563 120.18C73.7163 119.58 73.9963 118.707 73.9963 117.56V111.54H75.8163ZM80.3092 113.58C80.6826 112.927 81.2292 112.393 81.9492 111.98C82.6692 111.567 83.4892 111.36 84.4092 111.36C85.3959 111.36 86.2826 111.593 87.0692 112.06C87.8559 112.527 88.4759 113.187 88.9292 114.04C89.3826 114.88 89.6092 115.86 89.6092 116.98C89.6092 118.087 89.3826 119.073 88.9292 119.94C88.4759 120.807 87.8492 121.48 87.0492 121.96C86.2626 122.44 85.3826 122.68 84.4092 122.68C83.4626 122.68 82.6292 122.473 81.9092 122.06C81.2026 121.647 80.6692 121.12 80.3092 120.48V122.5H78.4892V107.7H80.3092V113.58ZM87.7492 116.98C87.7492 116.153 87.5826 115.433 87.2492 114.82C86.9159 114.207 86.4626 113.74 85.8892 113.42C85.3292 113.1 84.7092 112.94 84.0292 112.94C83.3626 112.94 82.7426 113.107 82.1692 113.44C81.6092 113.76 81.1559 114.233 80.8092 114.86C80.4759 115.473 80.3092 116.187 80.3092 117C80.3092 117.827 80.4759 118.553 80.8092 119.18C81.1559 119.793 81.6092 120.267 82.1692 120.6C82.7426 120.92 83.3626 121.08 84.0292 121.08C84.7092 121.08 85.3292 120.92 85.8892 120.6C86.4626 120.267 86.9159 119.793 87.2492 119.18C87.5826 118.553 87.7492 117.82 87.7492 116.98Z" fill="white"/>
</svg>
