<svg width="115" height="131" viewBox="0 0 115 131" fill="none" xmlns="http://www.w3.org/2000/svg">
<path d="M57.4038 93.9622L25.93 85.2249L18.8666 6H96.0376L88.9667 85.2119L57.4038 93.9622Z" stroke="#FF7A00" stroke-opacity="0.75" stroke-width="2"/>
<path fill-rule="evenodd" clip-rule="evenodd" d="M77.7845 72.1673L77.934 70.4888L80.2685 44.334L80.5109 41.6662H44.3059L43.398 31.4929H57.435H81.383L81.6142 29.2599L82.0668 24.2235L82.3044 21.5581H57.435H32.5406L32.7784 24.2235L35.2202 51.6008H57.4522H69.6513L68.4981 64.4854L57.4504 67.4673L46.3443 64.4918L45.6369 56.5684H40.2605H35.6641L37.0559 72.1673L57.4064 77.8167L77.7845 72.1673Z" fill="#FF7A00" fill-opacity="0.75"/>
<path d="M31.4521 106.96L25.8921 120H24.0521L29.6921 107.14H21.9721V105.58H31.4521V106.96ZM42.2901 107.12H35.2701V111.68C35.5767 111.253 36.0301 110.907 36.6301 110.64C37.2301 110.36 37.8767 110.22 38.5701 110.22C39.6767 110.22 40.5767 110.453 41.2701 110.92C41.9634 111.373 42.4567 111.967 42.7501 112.7C43.0567 113.42 43.2101 114.187 43.2101 115C43.2101 115.96 43.0301 116.82 42.6701 117.58C42.3101 118.34 41.7567 118.94 41.0101 119.38C40.2767 119.82 39.3634 120.04 38.2701 120.04C36.8701 120.04 35.7367 119.68 34.8701 118.96C34.0034 118.24 33.4767 117.28 33.2901 116.08H35.0701C35.2434 116.84 35.6101 117.433 36.1701 117.86C36.7301 118.287 37.4367 118.5 38.2901 118.5C39.3434 118.5 40.1367 118.187 40.6701 117.56C41.2034 116.92 41.4701 116.08 41.4701 115.04C41.4701 114 41.2034 113.2 40.6701 112.64C40.1367 112.067 39.3501 111.78 38.3101 111.78C37.6034 111.78 36.9834 111.953 36.4501 112.3C35.9301 112.633 35.5501 113.093 35.3101 113.68H33.5901V105.52H42.2901V107.12ZM57.2607 101.16L51.7807 123.4H49.9807L55.4407 101.16H57.2607ZM63.7245 107.2V105.54H67.4845V120H65.6445V107.2H63.7245ZM70.2107 112.62C70.2107 110.327 70.584 108.54 71.3307 107.26C72.0774 105.967 73.384 105.32 75.2507 105.32C77.104 105.32 78.404 105.967 79.1507 107.26C79.8974 108.54 80.2707 110.327 80.2707 112.62C80.2707 114.953 79.8974 116.767 79.1507 118.06C78.404 119.353 77.104 120 75.2507 120C73.384 120 72.0774 119.353 71.3307 118.06C70.584 116.767 70.2107 114.953 70.2107 112.62ZM78.4707 112.62C78.4707 111.46 78.3907 110.48 78.2307 109.68C78.084 108.867 77.7707 108.213 77.2907 107.72C76.824 107.227 76.144 106.98 75.2507 106.98C74.344 106.98 73.6507 107.227 73.1707 107.72C72.704 108.213 72.3907 108.867 72.2307 109.68C72.084 110.48 72.0107 111.46 72.0107 112.62C72.0107 113.82 72.084 114.827 72.2307 115.64C72.3907 116.453 72.704 117.107 73.1707 117.6C73.6507 118.093 74.344 118.34 75.2507 118.34C76.144 118.34 76.824 118.093 77.2907 117.6C77.7707 117.107 78.084 116.453 78.2307 115.64C78.3907 114.827 78.4707 113.82 78.4707 112.62ZM82.3693 112.62C82.3693 110.327 82.7426 108.54 83.4893 107.26C84.236 105.967 85.5426 105.32 87.4093 105.32C89.2626 105.32 90.5626 105.967 91.3093 107.26C92.056 108.54 92.4293 110.327 92.4293 112.62C92.4293 114.953 92.056 116.767 91.3093 118.06C90.5626 119.353 89.2626 120 87.4093 120C85.5426 120 84.236 119.353 83.4893 118.06C82.7426 116.767 82.3693 114.953 82.3693 112.62ZM90.6293 112.62C90.6293 111.46 90.5493 110.48 90.3893 109.68C90.2426 108.867 89.9293 108.213 89.4493 107.72C88.9826 107.227 88.3026 106.98 87.4093 106.98C86.5026 106.98 85.8093 107.227 85.3293 107.72C84.8626 108.213 84.5493 108.867 84.3893 109.68C84.2426 110.48 84.1693 111.46 84.1693 112.62C84.1693 113.82 84.2426 114.827 84.3893 115.64C84.5493 116.453 84.8626 117.107 85.3293 117.6C85.8093 118.093 86.5026 118.34 87.4093 118.34C88.3026 118.34 88.9826 118.093 89.4493 117.6C89.9293 117.107 90.2426 116.453 90.3893 115.64C90.5493 114.827 90.6293 113.82 90.6293 112.62Z" fill="white"/>
</svg>
