<svg width="115" height="131" viewBox="0 0 115 131" fill="none" xmlns="http://www.w3.org/2000/svg">
<path d="M57.4038 93.9622L25.93 85.2249L18.8666 6H96.0376L88.9667 85.2119L57.4038 93.9622Z" stroke="white" stroke-opacity="0.5" stroke-width="2"/>
<path fill-rule="evenodd" clip-rule="evenodd" d="M77.7845 72.1673L77.934 70.4888L80.2685 44.334L80.5109 41.6662H44.3059L43.398 31.4929H57.435H81.383L81.6142 29.2599L82.0668 24.2235L82.3044 21.5581H57.435H32.5406L32.7784 24.2235L35.2202 51.6008H57.4522H69.6513L68.4981 64.4854L57.4504 67.4673L46.3443 64.4918L45.6369 56.5684H40.2605H35.6641L37.0559 72.1673L57.4064 77.8167L77.7845 72.1673Z" fill="white" fill-opacity="0.5"/>
<path d="M39.037 106.06V120H37.217V113.68H30.117V120H28.297V106.06H30.117V112.18H37.217V106.06H39.037ZM50.3247 106.06V107.54H46.5247V120H44.7047V107.54H40.8847V106.06H50.3247ZM66.305 106.16V120H64.485V109.68L59.885 120H58.605L53.985 109.66V120H52.165V106.16H54.125L59.245 117.6L64.365 106.16H66.305ZM70.8116 118.52H75.6916V120H68.9916V106.06H70.8116V118.52ZM86.1444 107.12H79.1244V111.68C79.431 111.253 79.8844 110.907 80.4844 110.64C81.0844 110.36 81.731 110.22 82.4244 110.22C83.531 110.22 84.431 110.453 85.1244 110.92C85.8177 111.373 86.311 111.967 86.6044 112.7C86.911 113.42 87.0644 114.187 87.0644 115C87.0644 115.96 86.8844 116.82 86.5244 117.58C86.1644 118.34 85.611 118.94 84.8644 119.38C84.131 119.82 83.2177 120.04 82.1244 120.04C80.7244 120.04 79.591 119.68 78.7244 118.96C77.8577 118.24 77.331 117.28 77.1444 116.08H78.9244C79.0977 116.84 79.4644 117.433 80.0244 117.86C80.5844 118.287 81.291 118.5 82.1444 118.5C83.1977 118.5 83.991 118.187 84.5244 117.56C85.0577 116.92 85.3244 116.08 85.3244 115.04C85.3244 114 85.0577 113.2 84.5244 112.64C83.991 112.067 83.2044 111.78 82.1644 111.78C81.4577 111.78 80.8377 111.953 80.3044 112.3C79.7844 112.633 79.4044 113.093 79.1644 113.68H77.4444V105.52H86.1444V107.12Z" fill="white"/>
</svg>
