<svg width="115" height="131" viewBox="0 0 115 131" fill="none" xmlns="http://www.w3.org/2000/svg">
<path fill-rule="evenodd" clip-rule="evenodd" d="M90 92.5C96.905 92.5 102.5 86.905 102.5 80V15C102.5 8.095 96.905 2.5 90 2.5H25C18.0975 2.5 12.5 8.095 12.5 15V80C12.5 86.905 18.0975 92.5 25 92.5H90ZM73.09 36.5625V64.45C73.09 64.8125 73.2725 65.03 73.6325 65.03H80.73C81.055 65.03 81.2 64.8475 81.2 64.45V36.5625C81.2 36.235 81.055 36.055 80.73 36.055H73.56C73.235 36.055 73.09 36.2 73.09 36.5625ZM77.1475 33.0125C75.9525 33.0475 74.7925 32.5775 73.925 31.745C73.0925 30.84 72.6575 29.645 72.6925 28.4125C72.6575 27.18 73.1275 26.0225 73.9975 25.19C74.8675 24.3575 76.025 23.9225 77.22 23.9225C78.6325 23.9225 79.72 24.3575 80.515 25.19C81.3125 26.06 81.7475 27.2175 81.71 28.4125C81.745 29.645 81.3125 30.84 80.4425 31.745C79.61 32.615 78.38 33.085 77.1475 33.0125ZM44.1175 55.83H57.59L60.56 64.45C60.6325 64.7025 60.8875 64.8825 61.14 64.8475H68.71C69.0725 64.8475 69.18 64.665 69.0725 64.2675L55.8525 26.9625C55.8175 26.78 55.6725 26.6725 55.3825 26.6725H46.0025C45.82 26.7075 45.6775 26.89 45.7125 27.07C45.7125 27.8675 45.64 28.665 45.495 29.425C45.3851 29.7546 45.2953 30.0627 45.2115 30.3504C45.1847 30.4423 45.1585 30.5322 45.1325 30.62L33.47 64.195C33.36 64.63 33.47 64.8475 33.8675 64.8475H40.6775C41.0025 64.8825 41.2925 64.665 41.365 64.34L44.1175 55.83ZM46.2175 48.4775H55.4175C55.2 47.7175 54.91 46.8125 54.585 45.87C54.26 44.8925 53.9325 43.8425 53.6075 42.755C53.4263 42.1937 53.2544 41.6413 53.0825 41.0888C52.9106 40.5363 52.7388 39.9837 52.5575 39.4225C52.195 38.3 51.87 37.25 51.58 36.2C51.4553 35.7636 51.3376 35.341 51.2236 34.932C51.0724 34.3896 50.9279 33.8709 50.7825 33.375H50.71C50.385 34.9325 49.985 36.49 49.4775 38.0475C49.2702 38.7115 49.0625 39.3864 48.8528 40.068C48.5137 41.1699 48.1693 42.2892 47.8125 43.4075C47.305 45.255 46.76 46.9575 46.2175 48.4775Z" fill="white" fill-opacity="0.5"/>
<path d="M15.9557 108.56V122.5H14.1357V108.56H15.9557ZM20.4776 107.7V122.5H18.6576V107.7H20.4776ZM24.9995 107.7V122.5H23.1795V107.7H24.9995ZM37.4213 111.54V122.5H35.6013V120.88C35.2547 121.44 34.768 121.88 34.1413 122.2C33.528 122.507 32.848 122.66 32.1013 122.66C31.248 122.66 30.4813 122.487 29.8013 122.14C29.1213 121.78 28.5813 121.247 28.1813 120.54C27.7947 119.833 27.6013 118.973 27.6013 117.96V111.54H29.4013V117.72C29.4013 118.8 29.6747 119.633 30.2213 120.22C30.768 120.793 31.5147 121.08 32.4613 121.08C33.4347 121.08 34.2013 120.78 34.7613 120.18C35.3213 119.58 35.6013 118.707 35.6013 117.56V111.54H37.4213ZM43.9743 122.68C43.1343 122.68 42.381 122.54 41.7143 122.26C41.0476 121.967 40.521 121.567 40.1343 121.06C39.7476 120.54 39.5343 119.947 39.4943 119.28H41.3743C41.4276 119.827 41.681 120.273 42.1343 120.62C42.601 120.967 43.2076 121.14 43.9543 121.14C44.6476 121.14 45.1943 120.987 45.5943 120.68C45.9943 120.373 46.1943 119.987 46.1943 119.52C46.1943 119.04 45.981 118.687 45.5543 118.46C45.1276 118.22 44.4676 117.987 43.5743 117.76C42.761 117.547 42.0943 117.333 41.5743 117.12C41.0676 116.893 40.6276 116.567 40.2543 116.14C39.8943 115.7 39.7143 115.127 39.7143 114.42C39.7143 113.86 39.881 113.347 40.2143 112.88C40.5476 112.413 41.021 112.047 41.6343 111.78C42.2476 111.5 42.9476 111.36 43.7343 111.36C44.9476 111.36 45.9276 111.667 46.6743 112.28C47.421 112.893 47.821 113.733 47.8743 114.8H46.0543C46.0143 114.227 45.781 113.767 45.3543 113.42C44.941 113.073 44.381 112.9 43.6743 112.9C43.021 112.9 42.501 113.04 42.1143 113.32C41.7276 113.6 41.5343 113.967 41.5343 114.42C41.5343 114.78 41.6476 115.08 41.8743 115.32C42.1143 115.547 42.4076 115.733 42.7543 115.88C43.1143 116.013 43.6076 116.167 44.2343 116.34C45.021 116.553 45.661 116.767 46.1543 116.98C46.6476 117.18 47.0676 117.487 47.4143 117.9C47.7743 118.313 47.961 118.853 47.9743 119.52C47.9743 120.12 47.8076 120.66 47.4743 121.14C47.141 121.62 46.6676 122 46.0543 122.28C45.4543 122.547 44.761 122.68 43.9743 122.68ZM52.3635 113.04V119.5C52.3635 120.033 52.4768 120.413 52.7035 120.64C52.9302 120.853 53.3235 120.96 53.8835 120.96H55.2235V122.5H53.5835C52.5702 122.5 51.8102 122.267 51.3035 121.8C50.7968 121.333 50.5435 120.567 50.5435 119.5V113.04H49.1235V111.54H50.5435V108.78H52.3635V111.54H55.2235V113.04H52.3635ZM58.8487 113.32C59.1687 112.693 59.622 112.207 60.2087 111.86C60.8087 111.513 61.5353 111.34 62.3887 111.34V113.22H61.9087C59.8687 113.22 58.8487 114.327 58.8487 116.54V122.5H57.0287V111.54H58.8487V113.32ZM63.4096 116.98C63.4096 115.86 63.6363 114.88 64.0896 114.04C64.5429 113.187 65.1629 112.527 65.9496 112.06C66.7496 111.593 67.6363 111.36 68.6096 111.36C69.5696 111.36 70.4029 111.567 71.1096 111.98C71.8163 112.393 72.3429 112.913 72.6896 113.54V111.54H74.5296V122.5H72.6896V120.46C72.3296 121.1 71.7896 121.633 71.0696 122.06C70.3629 122.473 69.5363 122.68 68.5896 122.68C67.6163 122.68 66.7363 122.44 65.9496 121.96C65.1629 121.48 64.5429 120.807 64.0896 119.94C63.6363 119.073 63.4096 118.087 63.4096 116.98ZM72.6896 117C72.6896 116.173 72.5229 115.453 72.1896 114.84C71.8563 114.227 71.4029 113.76 70.8296 113.44C70.2696 113.107 69.6496 112.94 68.9696 112.94C68.2896 112.94 67.6696 113.1 67.1096 113.42C66.5496 113.74 66.1029 114.207 65.7696 114.82C65.4363 115.433 65.2696 116.153 65.2696 116.98C65.2696 117.82 65.4363 118.553 65.7696 119.18C66.1029 119.793 66.5496 120.267 67.1096 120.6C67.6696 120.92 68.2896 121.08 68.9696 121.08C69.6496 121.08 70.2696 120.92 70.8296 120.6C71.4029 120.267 71.8563 119.793 72.1896 119.18C72.5229 118.553 72.6896 117.827 72.6896 117ZM79.4252 113.04V119.5C79.4252 120.033 79.5386 120.413 79.7652 120.64C79.9919 120.853 80.3852 120.96 80.9452 120.96H82.2852V122.5H80.6452C79.6319 122.5 78.8719 122.267 78.3652 121.8C77.8586 121.333 77.6052 120.567 77.6052 119.5V113.04H76.1852V111.54H77.6052V108.78H79.4252V111.54H82.2852V113.04H79.4252ZM88.8704 122.68C87.8437 122.68 86.9104 122.447 86.0704 121.98C85.2437 121.513 84.5904 120.853 84.1104 120C83.6437 119.133 83.4104 118.133 83.4104 117C83.4104 115.88 83.6504 114.893 84.1304 114.04C84.6237 113.173 85.2904 112.513 86.1304 112.06C86.9704 111.593 87.9104 111.36 88.9504 111.36C89.9904 111.36 90.9304 111.593 91.7704 112.06C92.6104 112.513 93.2704 113.167 93.7504 114.02C94.2437 114.873 94.4904 115.867 94.4904 117C94.4904 118.133 94.2371 119.133 93.7304 120C93.2371 120.853 92.5637 121.513 91.7104 121.98C90.8571 122.447 89.9104 122.68 88.8704 122.68ZM88.8704 121.08C89.5237 121.08 90.1371 120.927 90.7104 120.62C91.2837 120.313 91.7437 119.853 92.0904 119.24C92.4504 118.627 92.6304 117.88 92.6304 117C92.6304 116.12 92.4571 115.373 92.1104 114.76C91.7637 114.147 91.3104 113.693 90.7504 113.4C90.1904 113.093 89.5837 112.94 88.9304 112.94C88.2637 112.94 87.6504 113.093 87.0904 113.4C86.5437 113.693 86.1037 114.147 85.7704 114.76C85.4371 115.373 85.2704 116.12 85.2704 117C85.2704 117.893 85.4304 118.647 85.7504 119.26C86.0837 119.873 86.5237 120.333 87.0704 120.64C87.6171 120.933 88.2171 121.08 88.8704 121.08ZM98.3034 113.32C98.6234 112.693 99.0767 112.207 99.6634 111.86C100.263 111.513 100.99 111.34 101.843 111.34V113.22H101.363C99.3234 113.22 98.3034 114.327 98.3034 116.54V122.5H96.4834V111.54H98.3034V113.32Z" fill="white"/>
</svg>
