<svg width="115" height="131" viewBox="0 0 115 131" fill="none" xmlns="http://www.w3.org/2000/svg">
<path fill-rule="evenodd" clip-rule="evenodd" d="M90 92.5C96.905 92.5 102.5 86.905 102.5 80V15C102.5 8.095 96.905 2.5 90 2.5H25C18.0975 2.5 12.5 8.095 12.5 15V80C12.5 86.905 18.0975 92.5 25 92.5H90ZM73.09 36.5625V64.45C73.09 64.8125 73.2725 65.03 73.6325 65.03H80.73C81.055 65.03 81.2 64.8475 81.2 64.45V36.5625C81.2 36.235 81.055 36.055 80.73 36.055H73.56C73.235 36.055 73.09 36.2 73.09 36.5625ZM77.1475 33.0125C75.9525 33.0475 74.7925 32.5775 73.925 31.745C73.0925 30.84 72.6575 29.645 72.6925 28.4125C72.6575 27.18 73.1275 26.0225 73.9975 25.19C74.8675 24.3575 76.025 23.9225 77.22 23.9225C78.6325 23.9225 79.72 24.3575 80.515 25.19C81.3125 26.06 81.7475 27.2175 81.71 28.4125C81.745 29.645 81.3125 30.84 80.4425 31.745C79.61 32.615 78.38 33.085 77.1475 33.0125ZM44.1175 55.83H57.59L60.56 64.45C60.6325 64.7025 60.8875 64.8825 61.14 64.8475H68.71C69.0725 64.8475 69.18 64.665 69.0725 64.2675L55.8525 26.9625C55.8175 26.78 55.6725 26.6725 55.3825 26.6725H46.0025C45.82 26.7075 45.6775 26.89 45.7125 27.07C45.7125 27.8675 45.64 28.665 45.495 29.425C45.3851 29.7546 45.2953 30.0627 45.2115 30.3504C45.1847 30.4423 45.1585 30.5322 45.1325 30.62L33.47 64.195C33.36 64.63 33.47 64.8475 33.8675 64.8475H40.6775C41.0025 64.8825 41.2925 64.665 41.365 64.34L44.1175 55.83ZM46.2175 48.4775H55.4175C55.2 47.7175 54.91 46.8125 54.585 45.87C54.26 44.8925 53.9325 43.8425 53.6075 42.755C53.4263 42.1937 53.2544 41.6413 53.0825 41.0888C52.9106 40.5363 52.7388 39.9837 52.5575 39.4225C52.195 38.3 51.87 37.25 51.58 36.2C51.4553 35.7636 51.3376 35.341 51.2236 34.932C51.0724 34.3896 50.9279 33.8709 50.7825 33.375H50.71C50.385 34.9325 49.985 36.49 49.4775 38.0475C49.2702 38.7115 49.0625 39.3864 48.8528 40.068C48.5137 41.1699 48.1693 42.2892 47.8125 43.4075C47.305 45.255 46.76 46.9575 46.2175 48.4775Z" fill="#FF7A00" fill-opacity="0.32"/>
<path d="M22.6098 111.68C22.7031 110.453 23.1764 109.493 24.0298 108.8C24.8831 108.107 25.9898 107.76 27.3498 107.76C28.2564 107.76 29.0364 107.927 29.6898 108.26C30.3564 108.58 30.8564 109.02 31.1898 109.58C31.5364 110.14 31.7098 110.773 31.7098 111.48C31.7098 112.307 31.4698 113.02 30.9898 113.62C30.5231 114.22 29.9098 114.607 29.1498 114.78V114.88C30.0164 115.093 30.7031 115.513 31.2098 116.14C31.7164 116.767 31.9698 117.587 31.9698 118.6C31.9698 119.36 31.7964 120.047 31.4498 120.66C31.1031 121.26 30.5831 121.733 29.8898 122.08C29.1964 122.427 28.3631 122.6 27.3898 122.6C25.9764 122.6 24.8164 122.233 23.9098 121.5C23.0031 120.753 22.4964 119.7 22.3898 118.34H24.1498C24.2431 119.14 24.5698 119.793 25.1298 120.3C25.6898 120.807 26.4364 121.06 27.3698 121.06C28.3031 121.06 29.0098 120.82 29.4898 120.34C29.9831 119.847 30.2298 119.213 30.2298 118.44C30.2298 117.44 29.8964 116.72 29.2298 116.28C28.5631 115.84 27.5564 115.62 26.2098 115.62H25.7498V114.1H26.2298C27.4564 114.087 28.3831 113.887 29.0098 113.5C29.6364 113.1 29.9498 112.487 29.9498 111.66C29.9498 110.953 29.7164 110.387 29.2498 109.96C28.7964 109.533 28.1431 109.32 27.2898 109.32C26.4631 109.32 25.7964 109.533 25.2898 109.96C24.7831 110.387 24.4831 110.96 24.3898 111.68H22.6098ZM33.8071 121.04C35.5004 119.68 36.8271 118.567 37.7871 117.7C38.7471 116.82 39.5538 115.907 40.2071 114.96C40.8738 114 41.2071 113.06 41.2071 112.14C41.2071 111.273 40.9938 110.593 40.5671 110.1C40.1538 109.593 39.4804 109.34 38.5471 109.34C37.6404 109.34 36.9338 109.627 36.4271 110.2C35.9338 110.76 35.6671 111.513 35.6271 112.46H33.8671C33.9204 110.967 34.3738 109.813 35.2271 109C36.0804 108.187 37.1804 107.78 38.5271 107.78C39.9004 107.78 40.9871 108.16 41.7871 108.92C42.6004 109.68 43.0071 110.727 43.0071 112.06C43.0071 113.167 42.6738 114.247 42.0071 115.3C41.3538 116.34 40.6071 117.26 39.7671 118.06C38.9271 118.847 37.8538 119.767 36.5471 120.82H43.4271V122.34H33.8071V121.04ZM57.163 103.66L51.683 125.9H49.883L55.343 103.66H57.163ZM63.6268 109.7V108.04H67.3868V122.5H65.5468V109.7H63.6268ZM70.113 115.12C70.113 112.827 70.4864 111.04 71.233 109.76C71.9797 108.467 73.2864 107.82 75.153 107.82C77.0064 107.82 78.3064 108.467 79.053 109.76C79.7997 111.04 80.173 112.827 80.173 115.12C80.173 117.453 79.7997 119.267 79.053 120.56C78.3064 121.853 77.0064 122.5 75.153 122.5C73.2864 122.5 71.9797 121.853 71.233 120.56C70.4864 119.267 70.113 117.453 70.113 115.12ZM78.373 115.12C78.373 113.96 78.293 112.98 78.133 112.18C77.9864 111.367 77.673 110.713 77.193 110.22C76.7264 109.727 76.0464 109.48 75.153 109.48C74.2464 109.48 73.553 109.727 73.073 110.22C72.6064 110.713 72.293 111.367 72.133 112.18C71.9864 112.98 71.913 113.96 71.913 115.12C71.913 116.32 71.9864 117.327 72.133 118.14C72.293 118.953 72.6064 119.607 73.073 120.1C73.553 120.593 74.2464 120.84 75.153 120.84C76.0464 120.84 76.7264 120.593 77.193 120.1C77.673 119.607 77.9864 118.953 78.133 118.14C78.293 117.327 78.373 116.32 78.373 115.12ZM82.2716 115.12C82.2716 112.827 82.645 111.04 83.3916 109.76C84.1383 108.467 85.445 107.82 87.3116 107.82C89.165 107.82 90.465 108.467 91.2116 109.76C91.9583 111.04 92.3316 112.827 92.3316 115.12C92.3316 117.453 91.9583 119.267 91.2116 120.56C90.465 121.853 89.165 122.5 87.3116 122.5C85.445 122.5 84.1383 121.853 83.3916 120.56C82.645 119.267 82.2716 117.453 82.2716 115.12ZM90.5316 115.12C90.5316 113.96 90.4516 112.98 90.2916 112.18C90.145 111.367 89.8316 110.713 89.3516 110.22C88.885 109.727 88.205 109.48 87.3116 109.48C86.405 109.48 85.7116 109.727 85.2316 110.22C84.765 110.713 84.4516 111.367 84.2916 112.18C84.145 112.98 84.0716 113.96 84.0716 115.12C84.0716 116.32 84.145 117.327 84.2916 118.14C84.4516 118.953 84.765 119.607 85.2316 120.1C85.7116 120.593 86.405 120.84 87.3116 120.84C88.205 120.84 88.885 120.593 89.3516 120.1C89.8316 119.607 90.145 118.953 90.2916 118.14C90.4516 117.327 90.5316 116.32 90.5316 115.12Z" fill="white"/>
</svg>
