<svg width="91" height="91" viewBox="0 0 91 91" fill="none" xmlns="http://www.w3.org/2000/svg">
<path fill-rule="evenodd" clip-rule="evenodd" d="M78 90.5C84.905 90.5 90.5 84.905 90.5 78V13C90.5 6.095 84.905 0.5 78 0.5H13C6.0975 0.5 0.5 6.095 0.5 13V78C0.5 84.905 6.0975 90.5 13 90.5H78ZM61.09 34.5625V62.45C61.09 62.8125 61.2725 63.03 61.6325 63.03H68.73C69.055 63.03 69.2 62.8475 69.2 62.45V34.5625C69.2 34.235 69.055 34.055 68.73 34.055H61.56C61.235 34.055 61.09 34.2 61.09 34.5625ZM65.1475 31.0125C63.9525 31.0475 62.7925 30.5775 61.925 29.745C61.0925 28.84 60.6575 27.645 60.6925 26.4125C60.6575 25.18 61.1275 24.0225 61.9975 23.19C62.8675 22.3575 64.025 21.9225 65.22 21.9225C66.6325 21.9225 67.72 22.3575 68.515 23.19C69.3125 24.06 69.7475 25.2175 69.71 26.4125C69.745 27.645 69.3125 28.84 68.4425 29.745C67.61 30.615 66.38 31.085 65.1475 31.0125ZM32.1175 53.83H45.59L48.56 62.45C48.6325 62.7025 48.8875 62.8825 49.14 62.8475H56.71C57.0725 62.8475 57.18 62.665 57.0725 62.2675L43.8525 24.9625C43.8175 24.78 43.6725 24.6725 43.3825 24.6725H34.0025C33.82 24.7075 33.6775 24.89 33.7125 25.07C33.7125 25.8675 33.64 26.665 33.495 27.425C33.3851 27.7546 33.2953 28.0627 33.2115 28.3504C33.1847 28.4423 33.1585 28.5322 33.1325 28.62L21.47 62.195C21.36 62.63 21.47 62.8475 21.8675 62.8475H28.6775C29.0025 62.8825 29.2925 62.665 29.365 62.34L32.1175 53.83ZM34.2175 46.4775H43.4175C43.2 45.7175 42.91 44.8125 42.585 43.87C42.26 42.8925 41.9325 41.8425 41.6075 40.755C41.4263 40.1937 41.2544 39.6413 41.0825 39.0888C40.9106 38.5363 40.7388 37.9837 40.5575 37.4225C40.195 36.3 39.87 35.25 39.58 34.2C39.4553 33.7636 39.3376 33.341 39.2236 32.932C39.0724 32.3896 38.9279 31.8709 38.7825 31.375H38.71C38.385 32.9325 37.985 34.49 37.4775 36.0475C37.2702 36.7115 37.0625 37.3864 36.8528 38.068C36.5137 39.1699 36.1693 40.2892 35.8125 41.4075C35.305 43.255 34.76 44.9575 34.2175 46.4775Z" fill="#FF7A00" fill-opacity="0.91"/>
</svg>
