<svg width="91" height="91" viewBox="0 0 91 91" fill="none" xmlns="http://www.w3.org/2000/svg">
<path fill-rule="evenodd" clip-rule="evenodd" d="M90.5 0.5H0.5V90.5H90.5V0.5ZM31.0515 71.5423L24.1644 75.7104C26.1581 79.9393 30.085 83.4426 36.8509 83.4426C44.3427 83.4426 49.4776 79.4552 49.4776 70.6954V41.8187H41.02V70.5758C41.02 74.8044 39.2675 75.8914 36.4884 75.8914C33.5891 75.8914 32.3804 73.8981 31.0515 71.5423ZM60.9578 70.817L54.0714 74.8041C56.5482 79.6978 61.6226 83.4437 69.4762 83.4437C77.5112 83.4437 83.4919 79.2756 83.4919 71.6628C83.4919 64.595 79.4444 61.4538 72.2549 58.3724L70.1407 57.4664C66.5161 55.8956 64.9453 54.868 64.9453 52.3308C64.9453 50.277 66.516 48.7062 68.9932 48.7062C71.4098 48.7062 72.9799 49.7331 74.4301 52.3308L81.0155 48.1015C78.2368 43.2081 74.3703 41.335 68.9935 41.335C61.4416 41.335 56.6087 46.1682 56.6087 52.5118C56.6087 59.3989 60.6562 62.6614 66.7583 65.2584L68.8722 66.1655C72.7387 67.8565 75.0344 68.8837 75.0344 71.7834C75.0344 74.2001 72.7999 75.9523 69.2952 75.9523C65.127 75.9523 62.7708 73.7775 60.9578 70.817Z" fill="#EB7203"/>
</svg>
