<svg width="140" height="60" viewBox="0 0 140 60" fill="none" xmlns="http://www.w3.org/2000/svg">
<path fill-rule="evenodd" clip-rule="evenodd" d="M5.49623 28.233L5.3441 27.7801H1.2915L1.86039 29.3603C2.66953 31.6079 3.78951 33.4485 5.2563 34.8196L5.2583 34.8215L5.26525 34.8279C6.87628 36.3018 9.07598 36.9581 11.6936 36.9581C14.4951 36.9581 16.7967 36.134 18.3691 34.3024C19.9117 32.5055 20.5804 29.9347 20.5804 26.801V3.21021L16.9493 8.03537V26.801C16.9493 29.0581 16.496 30.6841 15.7203 31.802L15.7197 31.8029L15.7174 31.8062C15.0951 32.7114 13.8936 33.327 11.6936 33.327C10.1288 33.327 8.90578 32.9245 7.94698 32.1857C6.99567 31.4526 6.07338 29.9514 5.49623 28.233ZM36.2909 12.8227C37.6242 12.8227 38.6784 12.9704 39.4843 13.2311L39.4994 13.236L39.5146 13.2405C40.2525 13.4575 40.9556 13.8874 41.6238 14.5794L41.6381 14.5942L41.653 14.6086C42.2621 15.1967 42.7876 16.1423 43.1497 17.5651L43.1504 17.5676L43.1508 17.5691L43.151 17.5701C43.5122 18.9631 43.7061 20.7883 43.7061 23.0748C43.7061 25.3592 43.5126 27.2003 43.1503 28.6247C42.7897 30.0143 42.2634 30.9728 41.6382 31.5979C40.9698 32.2664 40.2572 32.7081 39.4992 32.956C38.6839 33.1936 37.6235 33.327 36.2909 33.327C34.9582 33.327 33.8978 33.1936 33.0824 32.956C32.3254 32.7084 31.5984 32.2671 30.9017 31.5982C30.3029 30.9714 29.7913 30.0116 29.4313 28.6242C29.0691 27.1999 28.8757 25.359 28.8757 23.0748C28.8757 20.7883 29.0696 18.9631 29.4307 17.5701L29.431 17.5691L29.432 17.5651C29.7962 16.1341 30.3122 15.1831 30.9011 14.5941C31.6022 13.893 32.3247 13.4588 33.0672 13.2405L33.0823 13.236L33.0974 13.2311C33.9033 12.9704 34.9575 12.8227 36.2909 12.8227ZM71.1071 36.5347L65.0445 23.5626C65.968 23.0199 66.7913 22.341 67.5108 21.5286L67.5165 21.5223L67.522 21.5158C68.5747 20.2932 69.1202 18.8649 69.1202 17.2739C69.1202 14.8617 68.0511 12.9215 66.0191 11.5543C64.0416 10.2047 61.2513 9.61501 57.8199 9.61501H51.9818V37.7433L55.6129 31.3473V13.2461H57.8199C60.2063 13.2461 62.1158 13.6491 63.6011 14.3918C64.2989 14.7407 64.7558 15.1511 65.0425 15.5955C65.3265 16.0357 65.4891 16.5794 65.4891 17.2739C65.4891 17.6565 65.4447 18.0017 65.3624 18.3143C65.29 18.5631 65.1735 18.7974 65.0054 19.0215L65.0003 19.0283L64.9951 19.0355C64.7849 19.3244 64.5891 19.5858 64.4076 19.82C64.3056 19.9303 64.1134 20.0937 63.7871 20.3035C63.4343 20.5303 63.1661 20.7043 62.9859 20.8235L62.1334 21.2497C61.729 21.4384 61.4733 21.5586 61.3992 21.5956L60.3716 22.1095L67.1034 36.5347H71.1071ZM78.2133 9.61501H73.8148V36.5347H78.2133C82.6023 36.5347 86.2375 35.3738 88.9891 32.9349C91.7627 30.4765 93.1127 27.1429 93.1127 23.0748C93.1127 19.0068 91.7627 15.6732 88.9891 13.2148C86.2375 10.7759 82.6023 9.61501 78.2133 9.61501ZM86.5032 30.2688L86.502 30.2699L86.4981 30.2733C84.5389 31.9845 81.8225 32.9036 78.2133 32.9036H77.4459V13.2461H78.2133C81.8225 13.2461 84.5393 14.1656 86.4986 15.8768L86.4998 15.8778L86.5025 15.8802L86.5037 15.8812C88.4605 17.569 89.4816 19.9154 89.4816 23.0748C89.4816 26.2343 88.46 28.5811 86.5032 30.2688ZM112.664 32.9036L103.692 32.9036L97.7744 36.5347H118.135L105.767 7.34646L92.9847 37.5132L98.7101 34.0215L105.779 16.6821L112.664 32.9036ZM120.003 36.7377L123.634 31.372V17.2272L135.601 36.5347H138.708V9.61501L135.077 14.7371V28.8868L123.11 9.61501H120.003V36.7377ZM36.2909 36.9581C40.0307 36.9581 42.9816 35.8897 44.8098 33.4859C46.5712 31.1699 47.3372 27.6164 47.3372 23.0748C47.3372 18.5333 46.5712 14.9798 44.8098 12.6638C42.9816 10.26 40.0307 9.19158 36.2909 9.19158C32.5511 9.19158 29.6002 10.26 27.772 12.6637C26.0105 14.9798 25.2446 18.5333 25.2446 23.0748C25.2446 27.6164 26.0105 31.1699 27.772 33.4859C29.6002 35.8897 32.5511 36.9581 36.2909 36.9581Z" fill="#FF6B00"/>
<path d="M2.88761 52.5449H1.2915V40.733H2.88761C4.95975 40.733 6.61186 41.2625 7.84394 42.3215C9.07602 43.3805 9.69206 44.8197 9.69206 46.639C9.69206 48.4583 9.07602 49.8974 7.84394 50.9564C6.61186 52.0154 4.95975 52.5449 2.88761 52.5449ZM2.88761 51.934C4.77774 51.934 6.27583 51.4656 7.38191 50.5288C8.50198 49.592 9.06202 48.2954 9.06202 46.639C9.06202 44.9826 8.50198 43.686 7.38191 42.7492C6.27583 41.8124 4.77774 41.344 2.88761 41.344H1.92155V51.934H2.88761Z" fill="black"/>
<path d="M36.7993 51.3434C36.0292 52.2802 34.7692 52.7486 33.019 52.7486C31.2689 52.7486 30.0158 52.2666 29.2598 51.3027C28.5037 50.3387 28.1257 48.7841 28.1257 46.639C28.1257 44.4938 28.5037 42.9393 29.2598 41.9753C30.0158 41.0114 31.2689 40.5294 33.019 40.5294C35.0492 40.5294 36.4283 41.1743 37.1563 42.4641L32.011 46.639H31.0239L36.3373 42.3419C35.7212 41.5409 34.6151 41.1403 33.019 41.1403C32.319 41.1403 31.731 41.215 31.2549 41.3644C30.7789 41.5001 30.3379 41.7649 29.9318 42.1586C29.5398 42.5388 29.2458 43.1022 29.0498 43.8489C28.8538 44.5821 28.7558 45.5121 28.7558 46.639C28.7558 47.7659 28.8538 48.7027 29.0498 49.4494C29.2458 50.1826 29.5398 50.746 29.9318 51.1397C30.3379 51.5199 30.7789 51.7846 31.2549 51.934C31.731 52.0698 32.319 52.1376 33.019 52.1376C34.6151 52.1376 35.7212 51.7371 36.3373 50.9361L36.7993 51.3434Z" fill="black"/>
<path d="M59.1207 40.4886C60.8568 40.4886 62.0888 40.862 62.8169 41.6087L62.3969 42.0568C61.7248 41.4187 60.6608 41.0996 59.2047 41.0996C57.0205 41.0996 55.9284 41.9414 55.9284 43.6249C55.9284 44.2766 56.1945 44.7993 56.7265 45.193C57.2585 45.5732 57.9026 45.8651 58.6586 46.0688C59.4287 46.2724 60.1917 46.4896 60.9478 46.7204C61.7178 46.9377 62.3689 47.2975 62.9009 47.7998C63.4329 48.2886 63.699 48.9335 63.699 49.7345C63.699 50.6713 63.2999 51.4181 62.5019 51.9747C61.7038 52.5314 60.5487 52.8097 59.0366 52.8097C58.2946 52.8097 57.5595 52.7147 56.8315 52.5246C56.1175 52.3345 55.5854 52.0562 55.2354 51.6896L55.6554 51.2416C56.3695 51.8797 57.4685 52.1987 58.9526 52.1987C60.3107 52.1987 61.3328 51.9543 62.0188 51.4656C62.7189 50.9768 63.0689 50.4066 63.0689 49.7549C63.0689 49.076 62.8029 48.5262 62.2709 48.1053C61.7388 47.6844 61.0878 47.3721 60.3177 47.1685C59.5617 46.9513 58.7986 46.734 58.0286 46.5168C57.2725 46.286 56.6285 45.933 56.0964 45.4578C55.5644 44.9826 55.2984 44.3581 55.2984 43.5842C55.2984 42.5388 55.6554 41.7649 56.3695 41.2625C57.0975 40.7466 58.0146 40.4886 59.1207 40.4886Z" fill="black"/>
<path d="M82.5078 40.733H83.1379V52.5449H82.5078V40.733Z" fill="black"/>
<path d="M107.767 44.6025L110.56 42.3419C109.944 41.5409 108.838 41.1403 107.242 41.1403C106.542 41.1403 105.954 41.215 105.478 41.3644C105.002 41.5001 104.561 41.7649 104.155 42.1586C103.763 42.5388 103.468 43.1022 103.272 43.8489C103.076 44.5821 102.978 45.5121 102.978 46.639C102.978 47.7659 103.076 48.7027 103.272 49.4494C103.468 50.1826 103.763 50.746 104.155 51.1397C104.561 51.5199 105.002 51.7846 105.478 51.934C105.954 52.0698 106.542 52.1376 107.242 52.1376C108.824 52.1376 109.923 51.7439 110.539 50.9564V47.3518H111.169V52.7282C111.169 55.3214 109.944 56.618 107.494 56.618H105.037V56.0071H107.494C108.544 56.0071 109.314 55.7355 109.804 55.1924C110.294 54.6629 110.539 53.6447 110.539 52.1376V51.8322C109.783 52.4431 108.684 52.7486 107.242 52.7486C105.492 52.7486 104.239 52.2666 103.482 51.3027C102.726 50.3387 102.348 48.7841 102.348 46.639C102.348 44.4938 102.726 42.9393 103.482 41.9753C104.239 41.0114 105.492 40.5294 107.242 40.5294C109.272 40.5294 110.651 41.1743 111.379 42.4641L108.754 44.6025H107.767Z" fill="black"/>
<path d="M130.602 52.5449V40.733H131.232L138.078 51.4248V40.733H138.708V52.5449H138.078L131.232 41.8328V52.5449H130.602Z" fill="black"/>
</svg>
