<svg width="115" height="131" viewBox="0 0 115 131" fill="none" xmlns="http://www.w3.org/2000/svg">
<path fill-rule="evenodd" clip-rule="evenodd" d="M27.5 5H87.5C95.785 5 102.5 11.715 102.5 20V80C102.5 88.285 95.785 95 87.5 95H27.5C19.215 95 12.5 88.285 12.5 80V20C12.5 11.715 19.215 5 27.5 5ZM33.7675 28.43C33.7675 28.165 33.96 27.9425 34.2225 27.9125C35.2225 27.8025 38.0125 27.575 43.965 27.575C52.935 27.575 59.2175 31.1325 59.2175 40.8675C59.2175 49.6475 53.24 54.8 43.595 54.8H40.555V69.505C40.555 69.75 40.355 69.95 40.11 69.95H34.215C33.97 69.95 33.77 69.75 33.77 69.505L33.7675 28.43ZM44.1925 48.6375C43.5225 48.6375 40.555 48.6175 40.555 48.6175L40.5575 33.825C40.5575 33.825 42.5825 33.705 44.68 33.705C49.77 33.705 52.205 36.9 52.205 40.9975C52.205 45.3725 49.7 48.6375 44.1925 48.6375ZM63.345 62.17C63.1475 62.04 62.89 62.1875 62.89 62.425L62.8925 68.1675C62.8925 68.4225 63.0025 68.6625 63.22 68.795C64.79 69.75 67.86 70.4625 71.125 70.4625C77.4475 70.4625 82.115 66.9475 82.115 60.6875C82.115 56.86 80.0325 54.4175 75.54 51.9175C74.9142 51.5503 74.2728 51.2152 73.6521 50.8911C71.4165 49.7234 69.45 48.6963 69.45 46.81C69.45 45.435 70.67 44.085 73.4425 44.085C76.7725 44.085 79.1925 45.1825 80.29 45.9C80.4875 46.03 80.735 45.8775 80.735 45.6425V39.915C80.735 39.6075 80.56 39.3275 80.2725 39.2225C78.5225 38.585 75.93 38.22 73.58 38.22C67.445 38.22 62.94 41.62 62.94 47.2575C62.94 53.0344 67.1416 55.1935 69.6112 56.4626C69.8605 56.5907 70.0921 56.7097 70.3 56.8225C70.3454 56.8472 70.3911 56.8719 70.4369 56.8968C72.689 58.1183 75.3425 59.5576 75.3425 61.5275C75.3425 63.3425 73.7075 64.455 71.1225 64.455C67.1625 64.455 64.605 63.0125 63.345 62.17Z" fill="white" fill-opacity="0.5"/>
<path d="M15.917 110.14C15.917 111.3 15.517 112.267 14.717 113.04C13.9304 113.8 12.7237 114.18 11.097 114.18H8.41703V120H6.59703V106.06H11.097C12.6704 106.06 13.8637 106.44 14.677 107.2C15.5037 107.96 15.917 108.94 15.917 110.14ZM11.097 112.68C12.1104 112.68 12.857 112.46 13.337 112.02C13.817 111.58 14.057 110.953 14.057 110.14C14.057 108.42 13.0704 107.56 11.097 107.56H8.41703V112.68H11.097ZM23.2191 108.84C24.0457 108.84 24.7924 109.02 25.4591 109.38C26.1257 109.727 26.6457 110.253 27.0191 110.96C27.4057 111.667 27.5991 112.527 27.5991 113.54V120H25.7991V113.8C25.7991 112.707 25.5257 111.873 24.9791 111.3C24.4324 110.713 23.6857 110.42 22.7391 110.42C21.7791 110.42 21.0124 110.72 20.4391 111.32C19.8791 111.92 19.5991 112.793 19.5991 113.94V120H17.7791V105.2H19.5991V110.6C19.9591 110.04 20.4524 109.607 21.0791 109.3C21.7191 108.993 22.4324 108.84 23.2191 108.84ZM34.952 120.18C33.9254 120.18 32.992 119.947 32.152 119.48C31.3254 119.013 30.672 118.353 30.192 117.5C29.7254 116.633 29.492 115.633 29.492 114.5C29.492 113.38 29.732 112.393 30.212 111.54C30.7054 110.673 31.372 110.013 32.212 109.56C33.052 109.093 33.992 108.86 35.032 108.86C36.072 108.86 37.012 109.093 37.852 109.56C38.692 110.013 39.352 110.667 39.832 111.52C40.3254 112.373 40.572 113.367 40.572 114.5C40.572 115.633 40.3187 116.633 39.812 117.5C39.3187 118.353 38.6454 119.013 37.792 119.48C36.9387 119.947 35.992 120.18 34.952 120.18ZM34.952 118.58C35.6054 118.58 36.2187 118.427 36.792 118.12C37.3654 117.813 37.8254 117.353 38.172 116.74C38.532 116.127 38.712 115.38 38.712 114.5C38.712 113.62 38.5387 112.873 38.192 112.26C37.8454 111.647 37.392 111.193 36.832 110.9C36.272 110.593 35.6654 110.44 35.012 110.44C34.3454 110.44 33.732 110.593 33.172 110.9C32.6254 111.193 32.1854 111.647 31.852 112.26C31.5187 112.873 31.352 113.62 31.352 114.5C31.352 115.393 31.512 116.147 31.832 116.76C32.1654 117.373 32.6054 117.833 33.152 118.14C33.6987 118.433 34.2987 118.58 34.952 118.58ZM44.785 110.54V117C44.785 117.533 44.8983 117.913 45.125 118.14C45.3517 118.353 45.745 118.46 46.305 118.46H47.645V120H46.005C44.9917 120 44.2317 119.767 43.725 119.3C43.2183 118.833 42.965 118.067 42.965 117V110.54H41.545V109.04H42.965V106.28H44.785V109.04H47.645V110.54H44.785ZM54.2302 120.18C53.2035 120.18 52.2702 119.947 51.4302 119.48C50.6035 119.013 49.9502 118.353 49.4702 117.5C49.0035 116.633 48.7702 115.633 48.7702 114.5C48.7702 113.38 49.0102 112.393 49.4902 111.54C49.9835 110.673 50.6502 110.013 51.4902 109.56C52.3302 109.093 53.2702 108.86 54.3102 108.86C55.3502 108.86 56.2902 109.093 57.1302 109.56C57.9702 110.013 58.6302 110.667 59.1102 111.52C59.6035 112.373 59.8502 113.367 59.8502 114.5C59.8502 115.633 59.5968 116.633 59.0902 117.5C58.5968 118.353 57.9235 119.013 57.0702 119.48C56.2168 119.947 55.2702 120.18 54.2302 120.18ZM54.2302 118.58C54.8835 118.58 55.4968 118.427 56.0702 118.12C56.6435 117.813 57.1035 117.353 57.4502 116.74C57.8102 116.127 57.9902 115.38 57.9902 114.5C57.9902 113.62 57.8168 112.873 57.4702 112.26C57.1235 111.647 56.6702 111.193 56.1102 110.9C55.5502 110.593 54.9435 110.44 54.2902 110.44C53.6235 110.44 53.0102 110.593 52.4502 110.9C51.9035 111.193 51.4635 111.647 51.1302 112.26C50.7968 112.873 50.6302 113.62 50.6302 114.5C50.6302 115.393 50.7902 116.147 51.1102 116.76C51.4435 117.373 51.8835 117.833 52.4302 118.14C52.9768 118.433 53.5768 118.58 54.2302 118.58ZM66.2631 120.14C65.3431 120.14 64.5165 119.98 63.7831 119.66C63.0631 119.327 62.4965 118.873 62.0831 118.3C61.6698 117.713 61.4565 117.04 61.4431 116.28H63.3831C63.4498 116.933 63.7165 117.487 64.1831 117.94C64.6631 118.38 65.3565 118.6 66.2631 118.6C67.1298 118.6 67.8098 118.387 68.3031 117.96C68.8098 117.52 69.0631 116.96 69.0631 116.28C69.0631 115.747 68.9165 115.313 68.6231 114.98C68.3298 114.647 67.9631 114.393 67.5231 114.22C67.0831 114.047 66.4898 113.86 65.7431 113.66C64.8231 113.42 64.0831 113.18 63.5231 112.94C62.9765 112.7 62.5031 112.327 62.1031 111.82C61.7165 111.3 61.5231 110.607 61.5231 109.74C61.5231 108.98 61.7165 108.307 62.1031 107.72C62.4898 107.133 63.0298 106.68 63.7231 106.36C64.4298 106.04 65.2365 105.88 66.1431 105.88C67.4498 105.88 68.5165 106.207 69.3431 106.86C70.1831 107.513 70.6565 108.38 70.7631 109.46H68.7631C68.6965 108.927 68.4165 108.46 67.9231 108.06C67.4298 107.647 66.7765 107.44 65.9631 107.44C65.2031 107.44 64.5831 107.64 64.1031 108.04C63.6231 108.427 63.3831 108.973 63.3831 109.68C63.3831 110.187 63.5231 110.6 63.8031 110.92C64.0965 111.24 64.4498 111.487 64.8631 111.66C65.2898 111.82 65.8831 112.007 66.6431 112.22C67.5631 112.473 68.3031 112.727 68.8631 112.98C69.4231 113.22 69.9031 113.6 70.3031 114.12C70.7031 114.627 70.9031 115.32 70.9031 116.2C70.9031 116.88 70.7231 117.52 70.3631 118.12C70.0031 118.72 69.4698 119.207 68.7631 119.58C68.0565 119.953 67.2231 120.14 66.2631 120.14ZM78.6214 108.84C79.4481 108.84 80.1947 109.02 80.8614 109.38C81.5281 109.727 82.0481 110.253 82.4214 110.96C82.8081 111.667 83.0014 112.527 83.0014 113.54V120H81.2014V113.8C81.2014 112.707 80.9281 111.873 80.3814 111.3C79.8347 110.713 79.0881 110.42 78.1414 110.42C77.1814 110.42 76.4147 110.72 75.8414 111.32C75.2814 111.92 75.0014 112.793 75.0014 113.94V120H73.1814V105.2H75.0014V110.6C75.3614 110.04 75.8547 109.607 76.4814 109.3C77.1214 108.993 77.8347 108.84 78.6214 108.84ZM90.3544 120.18C89.3277 120.18 88.3944 119.947 87.5544 119.48C86.7277 119.013 86.0744 118.353 85.5944 117.5C85.1277 116.633 84.8944 115.633 84.8944 114.5C84.8944 113.38 85.1344 112.393 85.6144 111.54C86.1077 110.673 86.7744 110.013 87.6144 109.56C88.4544 109.093 89.3944 108.86 90.4344 108.86C91.4744 108.86 92.4144 109.093 93.2544 109.56C94.0944 110.013 94.7544 110.667 95.2344 111.52C95.7277 112.373 95.9744 113.367 95.9744 114.5C95.9744 115.633 95.721 116.633 95.2144 117.5C94.721 118.353 94.0477 119.013 93.1944 119.48C92.341 119.947 91.3944 120.18 90.3544 120.18ZM90.3544 118.58C91.0077 118.58 91.621 118.427 92.1944 118.12C92.7677 117.813 93.2277 117.353 93.5744 116.74C93.9344 116.127 94.1144 115.38 94.1144 114.5C94.1144 113.62 93.941 112.873 93.5944 112.26C93.2477 111.647 92.7944 111.193 92.2344 110.9C91.6744 110.593 91.0677 110.44 90.4144 110.44C89.7477 110.44 89.1344 110.593 88.5744 110.9C88.0277 111.193 87.5877 111.647 87.2544 112.26C86.921 112.873 86.7544 113.62 86.7544 114.5C86.7544 115.393 86.9144 116.147 87.2344 116.76C87.5677 117.373 88.0077 117.833 88.5544 118.14C89.101 118.433 89.701 118.58 90.3544 118.58ZM99.7873 111.06C100.147 110.433 100.681 109.913 101.387 109.5C102.107 109.073 102.941 108.86 103.887 108.86C104.861 108.86 105.741 109.093 106.527 109.56C107.327 110.027 107.954 110.687 108.407 111.54C108.861 112.38 109.087 113.36 109.087 114.48C109.087 115.587 108.861 116.573 108.407 117.44C107.954 118.307 107.327 118.98 106.527 119.46C105.741 119.94 104.861 120.18 103.887 120.18C102.954 120.18 102.127 119.973 101.407 119.56C100.701 119.133 100.161 118.607 99.7873 117.98V125.2H97.9673V109.04H99.7873V111.06ZM107.227 114.48C107.227 113.653 107.061 112.933 106.727 112.32C106.394 111.707 105.941 111.24 105.367 110.92C104.807 110.6 104.187 110.44 103.507 110.44C102.841 110.44 102.221 110.607 101.647 110.94C101.087 111.26 100.634 111.733 100.287 112.36C99.954 112.973 99.7873 113.687 99.7873 114.5C99.7873 115.327 99.954 116.053 100.287 116.68C100.634 117.293 101.087 117.767 101.647 118.1C102.221 118.42 102.841 118.58 103.507 118.58C104.187 118.58 104.807 118.42 105.367 118.1C105.941 117.767 106.394 117.293 106.727 116.68C107.061 116.053 107.227 115.32 107.227 114.48Z" fill="white"/>
</svg>
