<svg width="91" height="90" viewBox="0 0 91 90" fill="none" xmlns="http://www.w3.org/2000/svg">
<path fill-rule="evenodd" clip-rule="evenodd" d="M15.5 0H75.5C83.785 0 90.5 6.715 90.5 15V75C90.5 83.285 83.785 90 75.5 90H15.5C7.215 90 0.5 83.285 0.5 75V15C0.5 6.715 7.215 0 15.5 0ZM21.7675 23.43C21.7675 23.165 21.96 22.9425 22.2225 22.9125C23.2225 22.8025 26.0125 22.575 31.965 22.575C40.935 22.575 47.2175 26.1325 47.2175 35.8675C47.2175 44.6475 41.24 49.8 31.595 49.8H28.555V64.505C28.555 64.75 28.355 64.95 28.11 64.95H22.215C21.97 64.95 21.77 64.75 21.77 64.505L21.7675 23.43ZM32.1925 43.6375C31.5225 43.6375 28.555 43.6175 28.555 43.6175L28.5575 28.825C28.5575 28.825 30.5825 28.705 32.68 28.705C37.77 28.705 40.205 31.9 40.205 35.9975C40.205 40.3725 37.7 43.6375 32.1925 43.6375ZM51.345 57.17C51.1475 57.04 50.89 57.1875 50.89 57.425L50.8925 63.1675C50.8925 63.4225 51.0025 63.6625 51.22 63.795C52.79 64.75 55.86 65.4625 59.125 65.4625C65.4475 65.4625 70.115 61.9475 70.115 55.6875C70.115 51.86 68.0325 49.4175 63.54 46.9175C62.9142 46.5503 62.2728 46.2152 61.6521 45.8911C59.4165 44.7234 57.45 43.6963 57.45 41.81C57.45 40.435 58.67 39.085 61.4425 39.085C64.7725 39.085 67.1925 40.1825 68.29 40.9C68.4875 41.03 68.735 40.8775 68.735 40.6425V34.915C68.735 34.6075 68.56 34.3275 68.2725 34.2225C66.5225 33.585 63.93 33.22 61.58 33.22C55.445 33.22 50.94 36.62 50.94 42.2575C50.94 48.0344 55.1416 50.1935 57.6112 51.4626C57.8605 51.5907 58.0921 51.7097 58.3 51.8225C58.3454 51.8472 58.3911 51.8719 58.4369 51.8968C60.689 53.1183 63.3425 54.5576 63.3425 56.5275C63.3425 58.3425 61.7075 59.455 59.1225 59.455C55.1625 59.455 52.605 58.0125 51.345 57.17Z" fill="#FF7A00" fill-opacity="0.91"/>
</svg>
