<svg width="115" height="131" viewBox="0 0 115 131" fill="none" xmlns="http://www.w3.org/2000/svg">
<path fill-rule="evenodd" clip-rule="evenodd" d="M27.5 5H87.5C95.785 5 102.5 11.715 102.5 20V80C102.5 88.285 95.785 95 87.5 95H27.5C19.215 95 12.5 88.285 12.5 80V20C12.5 11.715 19.215 5 27.5 5ZM33.7675 28.43C33.7675 28.165 33.96 27.9425 34.2225 27.9125C35.2225 27.8025 38.0125 27.575 43.965 27.575C52.935 27.575 59.2175 31.1325 59.2175 40.8675C59.2175 49.6475 53.24 54.8 43.595 54.8H40.555V69.505C40.555 69.75 40.355 69.95 40.11 69.95H34.215C33.97 69.95 33.77 69.75 33.77 69.505L33.7675 28.43ZM44.1925 48.6375C43.5225 48.6375 40.555 48.6175 40.555 48.6175L40.5575 33.825C40.5575 33.825 42.5825 33.705 44.68 33.705C49.77 33.705 52.205 36.9 52.205 40.9975C52.205 45.3725 49.7 48.6375 44.1925 48.6375ZM63.345 62.17C63.1475 62.04 62.89 62.1875 62.89 62.425L62.8925 68.1675C62.8925 68.4225 63.0025 68.6625 63.22 68.795C64.79 69.75 67.86 70.4625 71.125 70.4625C77.4475 70.4625 82.115 66.9475 82.115 60.6875C82.115 56.86 80.0325 54.4175 75.54 51.9175C74.9142 51.5503 74.2728 51.2152 73.6521 50.8911C71.4165 49.7234 69.45 48.6963 69.45 46.81C69.45 45.435 70.67 44.085 73.4425 44.085C76.7725 44.085 79.1925 45.1825 80.29 45.9C80.4875 46.03 80.735 45.8775 80.735 45.6425V39.915C80.735 39.6075 80.56 39.3275 80.2725 39.2225C78.5225 38.585 75.93 38.22 73.58 38.22C67.445 38.22 62.94 41.62 62.94 47.2575C62.94 53.0344 67.1416 55.1935 69.6112 56.4626C69.8605 56.5907 70.0921 56.7097 70.3 56.8225C70.3454 56.8472 70.3911 56.8719 70.4369 56.8968C72.689 58.1183 75.3425 59.5576 75.3425 61.5275C75.3425 63.3425 73.7075 64.455 71.1225 64.455C67.1625 64.455 64.605 63.0125 63.345 62.17Z" fill="#FF7A00" fill-opacity="0.91"/>
<path d="M27.1284 116.12C27.2618 116.88 27.5684 117.467 28.0484 117.88C28.5418 118.293 29.2018 118.5 30.0284 118.5C31.1351 118.5 31.9484 118.067 32.4684 117.2C33.0018 116.333 33.2551 114.873 33.2284 112.82C32.9484 113.42 32.4818 113.893 31.8284 114.24C31.1751 114.573 30.4484 114.74 29.6484 114.74C28.7551 114.74 27.9551 114.56 27.2484 114.2C26.5551 113.827 26.0084 113.287 25.6084 112.58C25.2084 111.873 25.0084 111.02 25.0084 110.02C25.0084 108.593 25.4218 107.447 26.2484 106.58C27.0751 105.7 28.2484 105.26 29.7684 105.26C31.6351 105.26 32.9418 105.867 33.6884 107.08C34.4484 108.293 34.8284 110.1 34.8284 112.5C34.8284 114.18 34.6751 115.567 34.3684 116.66C34.0751 117.753 33.5684 118.587 32.8484 119.16C32.1418 119.733 31.1684 120.02 29.9284 120.02C28.5684 120.02 27.5084 119.653 26.7484 118.92C25.9884 118.187 25.5551 117.253 25.4484 116.12H27.1284ZM29.9484 113.2C30.8418 113.2 31.5751 112.927 32.1484 112.38C32.7218 111.82 33.0084 111.067 33.0084 110.12C33.0084 109.12 32.7284 108.313 32.1684 107.7C31.6084 107.087 30.8218 106.78 29.8084 106.78C28.8751 106.78 28.1284 107.073 27.5684 107.66C27.0218 108.247 26.7484 109.02 26.7484 109.98C26.7484 110.953 27.0218 111.733 27.5684 112.32C28.1151 112.907 28.9084 113.2 29.9484 113.2ZM36.5061 107.2V105.54H40.2661V120H38.4261V107.2H36.5061ZM55.0244 101.16L49.5444 123.4H47.7444L53.2044 101.16H55.0244ZM61.4881 107.2V105.54H65.2481V120H63.4081V107.2H61.4881ZM67.9744 112.62C67.9744 110.327 68.3477 108.54 69.0944 107.26C69.841 105.967 71.1477 105.32 73.0144 105.32C74.8677 105.32 76.1677 105.967 76.9144 107.26C77.661 108.54 78.0344 110.327 78.0344 112.62C78.0344 114.953 77.661 116.767 76.9144 118.06C76.1677 119.353 74.8677 120 73.0144 120C71.1477 120 69.841 119.353 69.0944 118.06C68.3477 116.767 67.9744 114.953 67.9744 112.62ZM76.2344 112.62C76.2344 111.46 76.1544 110.48 75.9944 109.68C75.8477 108.867 75.5344 108.213 75.0544 107.72C74.5877 107.227 73.9077 106.98 73.0144 106.98C72.1077 106.98 71.4144 107.227 70.9344 107.72C70.4677 108.213 70.1544 108.867 69.9944 109.68C69.8477 110.48 69.7744 111.46 69.7744 112.62C69.7744 113.82 69.8477 114.827 69.9944 115.64C70.1544 116.453 70.4677 117.107 70.9344 117.6C71.4144 118.093 72.1077 118.34 73.0144 118.34C73.9077 118.34 74.5877 118.093 75.0544 117.6C75.5344 117.107 75.8477 116.453 75.9944 115.64C76.1544 114.827 76.2344 113.82 76.2344 112.62ZM80.133 112.62C80.133 110.327 80.5063 108.54 81.253 107.26C81.9996 105.967 83.3063 105.32 85.173 105.32C87.0263 105.32 88.3263 105.967 89.073 107.26C89.8196 108.54 90.193 110.327 90.193 112.62C90.193 114.953 89.8196 116.767 89.073 118.06C88.3263 119.353 87.0263 120 85.173 120C83.3063 120 81.9996 119.353 81.253 118.06C80.5063 116.767 80.133 114.953 80.133 112.62ZM88.393 112.62C88.393 111.46 88.313 110.48 88.153 109.68C88.0063 108.867 87.693 108.213 87.213 107.72C86.7463 107.227 86.0663 106.98 85.173 106.98C84.2663 106.98 83.573 107.227 83.093 107.72C82.6263 108.213 82.313 108.867 82.153 109.68C82.0063 110.48 81.933 111.46 81.933 112.62C81.933 113.82 82.0063 114.827 82.153 115.64C82.313 116.453 82.6263 117.107 83.093 117.6C83.573 118.093 84.2663 118.34 85.173 118.34C86.0663 118.34 86.7463 118.093 87.213 117.6C87.693 117.107 88.0063 116.453 88.153 115.64C88.313 114.827 88.393 113.82 88.393 112.62Z" fill="white"/>
</svg>
