<svg width="179" height="58" viewBox="0 0 179 58" fill="none" xmlns="http://www.w3.org/2000/svg">
<rect width="179" height="58" rx="29" fill="#FF7A00"/>
<path d="M41.42 22.06V23.54H35.36V28.24H40.28V29.72H35.36V36H33.54V22.06H41.42ZM52.9381 25.04V36H51.1181V34.38C50.7715 34.94 50.2848 35.38 49.6581 35.7C49.0448 36.0067 48.3648 36.16 47.6181 36.16C46.7648 36.16 45.9981 35.9867 45.3181 35.64C44.6381 35.28 44.0981 34.7467 43.6981 34.04C43.3115 33.3333 43.1181 32.4733 43.1181 31.46V25.04H44.9181V31.22C44.9181 32.3 45.1915 33.1333 45.7381 33.72C46.2848 34.2933 47.0315 34.58 47.9781 34.58C48.9515 34.58 49.7181 34.28 50.2781 33.68C50.8381 33.08 51.1181 32.2067 51.1181 31.06V25.04H52.9381ZM57.4311 21.2V36H55.6111V21.2H57.4311ZM61.953 21.2V36H60.133V21.2H61.953ZM76.9269 36L73.6069 30.3H71.4069V36H69.5869V22.06H74.0869C75.1402 22.06 76.0269 22.24 76.7469 22.6C77.4802 22.96 78.0269 23.4467 78.3869 24.06C78.7469 24.6733 78.9269 25.3733 78.9269 26.16C78.9269 27.12 78.6469 27.9667 78.0869 28.7C77.5402 29.4333 76.7135 29.92 75.6069 30.16L79.1069 36H76.9269ZM71.4069 28.84H74.0869C75.0735 28.84 75.8135 28.6 76.3069 28.12C76.8002 27.6267 77.0469 26.9733 77.0469 26.16C77.0469 25.3333 76.8002 24.6933 76.3069 24.24C75.8269 23.7867 75.0869 23.56 74.0869 23.56H71.4069V28.84ZM91.3548 30.1C91.3548 30.4467 91.3348 30.8133 91.2948 31.2H82.5348C82.6015 32.28 82.9682 33.1267 83.6348 33.74C84.3148 34.34 85.1348 34.64 86.0948 34.64C86.8815 34.64 87.5348 34.46 88.0548 34.1C88.5882 33.7267 88.9615 33.2333 89.1748 32.62H91.1348C90.8415 33.6733 90.2548 34.5333 89.3748 35.2C88.4948 35.8533 87.4015 36.18 86.0948 36.18C85.0548 36.18 84.1215 35.9467 83.2948 35.48C82.4815 35.0133 81.8415 34.3533 81.3748 33.5C80.9082 32.6333 80.6748 31.6333 80.6748 30.5C80.6748 29.3667 80.9015 28.3733 81.3548 27.52C81.8082 26.6667 82.4415 26.0133 83.2548 25.56C84.0815 25.0933 85.0282 24.86 86.0948 24.86C87.1348 24.86 88.0548 25.0867 88.8548 25.54C89.6548 25.9933 90.2682 26.62 90.6948 27.42C91.1348 28.2067 91.3548 29.1 91.3548 30.1ZM89.4748 29.72C89.4748 29.0267 89.3215 28.4333 89.0148 27.94C88.7082 27.4333 88.2882 27.0533 87.7548 26.8C87.2348 26.5333 86.6548 26.4 86.0148 26.4C85.0948 26.4 84.3082 26.6933 83.6548 27.28C83.0148 27.8667 82.6482 28.68 82.5548 29.72H89.4748ZM97.2372 36.18C96.3972 36.18 95.6439 36.04 94.9772 35.76C94.3105 35.4667 93.7839 35.0667 93.3972 34.56C93.0105 34.04 92.7972 33.4467 92.7572 32.78H94.6372C94.6905 33.3267 94.9439 33.7733 95.3972 34.12C95.8639 34.4667 96.4705 34.64 97.2172 34.64C97.9105 34.64 98.4572 34.4867 98.8572 34.18C99.2572 33.8733 99.4572 33.4867 99.4572 33.02C99.4572 32.54 99.2439 32.1867 98.8172 31.96C98.3905 31.72 97.7305 31.4867 96.8372 31.26C96.0239 31.0467 95.3572 30.8333 94.8372 30.62C94.3305 30.3933 93.8905 30.0667 93.5172 29.64C93.1572 29.2 92.9772 28.6267 92.9772 27.92C92.9772 27.36 93.1439 26.8467 93.4772 26.38C93.8105 25.9133 94.2839 25.5467 94.8972 25.28C95.5105 25 96.2105 24.86 96.9972 24.86C98.2105 24.86 99.1905 25.1667 99.9372 25.78C100.684 26.3933 101.084 27.2333 101.137 28.3H99.3172C99.2772 27.7267 99.0439 27.2667 98.6172 26.92C98.2039 26.5733 97.6439 26.4 96.9372 26.4C96.2839 26.4 95.7639 26.54 95.3772 26.82C94.9905 27.1 94.7972 27.4667 94.7972 27.92C94.7972 28.28 94.9105 28.58 95.1372 28.82C95.3772 29.0467 95.6705 29.2333 96.0172 29.38C96.3772 29.5133 96.8705 29.6667 97.4972 29.84C98.2839 30.0533 98.9239 30.2667 99.4172 30.48C99.9105 30.68 100.331 30.9867 100.677 31.4C101.037 31.8133 101.224 32.3533 101.237 33.02C101.237 33.62 101.071 34.16 100.737 34.64C100.404 35.12 99.9305 35.5 99.3172 35.78C98.7172 36.0467 98.0239 36.18 97.2372 36.18ZM113.126 25.04V36H111.306V34.38C110.96 34.94 110.473 35.38 109.846 35.7C109.233 36.0067 108.553 36.16 107.806 36.16C106.953 36.16 106.186 35.9867 105.506 35.64C104.826 35.28 104.286 34.7467 103.886 34.04C103.5 33.3333 103.306 32.4733 103.306 31.46V25.04H105.106V31.22C105.106 32.3 105.38 33.1333 105.926 33.72C106.473 34.2933 107.22 34.58 108.166 34.58C109.14 34.58 109.906 34.28 110.466 33.68C111.026 33.08 111.306 32.2067 111.306 31.06V25.04H113.126ZM128.979 24.84C129.833 24.84 130.593 25.02 131.259 25.38C131.926 25.7267 132.453 26.2533 132.839 26.96C133.226 27.6667 133.419 28.5267 133.419 29.54V36H131.619V29.8C131.619 28.7067 131.346 27.8733 130.799 27.3C130.266 26.7133 129.539 26.42 128.619 26.42C127.673 26.42 126.919 26.7267 126.359 27.34C125.799 27.94 125.519 28.8133 125.519 29.96V36H123.719V29.8C123.719 28.7067 123.446 27.8733 122.899 27.3C122.366 26.7133 121.639 26.42 120.719 26.42C119.773 26.42 119.019 26.7267 118.459 27.34C117.899 27.94 117.619 28.8133 117.619 29.96V36H115.799V25.04H117.619V26.62C117.979 26.0467 118.459 25.6067 119.059 25.3C119.673 24.9933 120.346 24.84 121.079 24.84C121.999 24.84 122.813 25.0467 123.519 25.46C124.226 25.8733 124.753 26.48 125.099 27.28C125.406 26.5067 125.913 25.9067 126.619 25.48C127.326 25.0533 128.113 24.84 128.979 24.84ZM146.005 30.1C146.005 30.4467 145.985 30.8133 145.945 31.2H137.185C137.252 32.28 137.618 33.1267 138.285 33.74C138.965 34.34 139.785 34.64 140.745 34.64C141.532 34.64 142.185 34.46 142.705 34.1C143.238 33.7267 143.612 33.2333 143.825 32.62H145.785C145.492 33.6733 144.905 34.5333 144.025 35.2C143.145 35.8533 142.052 36.18 140.745 36.18C139.705 36.18 138.772 35.9467 137.945 35.48C137.132 35.0133 136.492 34.3533 136.025 33.5C135.558 32.6333 135.325 31.6333 135.325 30.5C135.325 29.3667 135.552 28.3733 136.005 27.52C136.458 26.6667 137.092 26.0133 137.905 25.56C138.732 25.0933 139.678 24.86 140.745 24.86C141.785 24.86 142.705 25.0867 143.505 25.54C144.305 25.9933 144.918 26.62 145.345 27.42C145.785 28.2067 146.005 29.1 146.005 30.1ZM144.125 29.72C144.125 29.0267 143.972 28.4333 143.665 27.94C143.358 27.4333 142.938 27.0533 142.405 26.8C141.885 26.5333 141.305 26.4 140.665 26.4C139.745 26.4 138.958 26.6933 138.305 27.28C137.665 27.8667 137.298 28.68 137.205 29.72H144.125Z" fill="#202020"/>
<path d="M32 38H146.865V39H32V38Z" fill="#202020"/>
</svg>
