<svg width="90" height="90" viewBox="0 0 90 90" fill="none" xmlns="http://www.w3.org/2000/svg">
<path d="M45 0C53.9001 0 62.6004 2.6392 70.0006 7.58387C77.4008 12.5285 83.1686 19.5566 86.5746 27.7792C89.9805 36.0019 90.8716 45.0499 89.1353 53.779C87.399 62.5082 83.1131 70.5264 76.8198 76.8198C70.5264 83.1131 62.5082 87.399 53.779 89.1353C45.0499 90.8716 36.0019 89.9805 27.7792 86.5746C19.5566 83.1686 12.5285 77.4008 7.58387 70.0006C2.6392 62.6004 0 53.9001 0 45C0 33.0652 4.74106 21.6193 13.1802 13.1802C21.6193 4.74106 33.0652 0 45 0ZM36 59.985C36.6767 62.1841 36.6767 64.5359 36 66.735C36 66.96 36 67.185 35.73 67.5C35.46 67.815 35.73 67.815 35.415 68.04C34.8941 69.1512 34.1948 70.1696 33.345 71.055C30.735 73.935 27 75.015 25.515 74.115C24.03 73.215 24.75 69.075 27.72 65.88C30.0457 63.5857 32.7185 61.6722 35.64 60.21L36 59.985ZM73.215 19.485C71.19 11.475 57.915 8.865 45.405 13.32C37.5618 15.8864 30.2993 19.9687 24.03 25.335C17.145 31.815 16.02 37.44 16.47 39.78C18 48.06 29.43 53.505 34.11 57.51C32.76 58.185 22.68 63.27 20.25 68.49C19.2224 70.1204 18.8823 72.0913 19.3039 73.9718C19.7256 75.8523 20.8747 77.4894 22.5 78.525C25.3859 79.2212 28.4174 78.9967 31.1693 77.8831C33.9212 76.7694 36.2555 74.8223 37.845 72.315C39.1592 70.2909 39.9821 67.9875 40.2477 65.5889C40.5134 63.1902 40.2145 60.7626 39.375 58.5C41.6305 57.9726 43.9618 57.8507 46.26 58.14C54.18 59.085 55.71 63.99 55.26 66.06C55.126 66.7952 54.8356 67.493 54.4086 68.1063C53.9817 68.7196 53.428 69.2341 52.785 69.615C52.245 69.93 52.065 70.065 52.11 70.335C52.155 70.605 52.425 70.695 52.875 70.605C54.1026 70.2711 55.1958 69.563 56.0023 68.5791C56.8088 67.5951 57.2886 66.3843 57.375 65.115C57.375 60.255 52.875 54.855 44.73 54.99C42.3516 54.9344 39.9802 55.2688 37.71 55.98L37.35 55.575C32.265 50.175 22.905 46.575 23.31 39.06C23.31 36.405 24.345 29.475 41.31 21.06C55.17 14.13 66.285 16.02 68.31 20.295C71.055 26.28 62.37 37.485 47.97 39.105C46.3933 39.4034 44.7703 39.3525 43.2154 38.956C41.6604 38.5595 40.2113 37.827 38.97 36.81C38.205 36.045 38.115 35.91 37.845 36.045C37.575 36.18 37.845 37.08 37.845 37.53C38.9893 39.501 40.8387 40.9645 43.02 41.625C48.6955 42.8499 54.6121 42.2677 59.94 39.96C68.4 36.54 75.24 27 73.215 19.26V19.485Z" fill="#EB7203"/>
</svg>
