<svg width="90" height="90" viewBox="0 0 90 90" fill="none" xmlns="http://www.w3.org/2000/svg">
<path fill-rule="evenodd" clip-rule="evenodd" d="M45 90C20.19 90 0 69.81 0 45C0 20.19 20.19 0 45 0C69.81 0 90 20.19 90 45C90 69.81 69.81 90 45 90ZM47.19 71.13V39.93L41.37 37.74V71.13H47.19ZM23.94 37.0199C23.94 29.0399 28.29 24.6899 33.39 24.6899C37.8826 24.6899 38.9764 25.2487 43.1311 27.3709C43.6928 27.6579 44.3104 27.9734 45 28.3199C50.79 31.2299 52.26 31.9499 55.17 31.9499C58.08 31.9499 59.52 29.7599 59.52 25.4099H64.59C65.31 34.1099 60.24 37.7399 55.14 37.7399C50.04 37.7399 48.6 37.0199 43.53 34.1099C38.46 31.1999 36.99 30.4799 34.08 30.4799C31.17 30.4799 29.73 32.6699 29.01 37.7399L23.94 37.0199Z" fill="#EB7203"/>
</svg>
