<svg width="90" height="90" viewBox="0 0 90 90" fill="none" xmlns="http://www.w3.org/2000/svg">
<path d="M6.40354e-08 44.9963C0.00418741 38.6738 1.32223 32.4212 3.87055 26.6349L25.3836 85.4995C17.7752 81.8137 11.3589 76.0596 6.86964 68.8963C2.38033 61.7329 -0.000450835 53.45 6.40354e-08 44.9963ZM75.3856 42.7462C74.9022 47.7185 73.7673 52.6057 72.0102 57.2823L67.5095 72.2685L51.2172 24.0247L56.348 23.4847C56.7947 23.39 57.1921 23.1367 57.4667 22.7718C57.7412 22.4068 57.8743 21.9548 57.8414 21.4993C57.8085 21.0438 57.6117 20.6156 57.2875 20.294C56.9634 19.9723 56.5337 19.7788 56.0779 19.7494C56.0779 19.7494 48.7869 20.3344 44.0612 20.3344L32.2246 19.7494C31.766 19.7703 31.3308 19.9573 31 20.2755C30.6693 20.5937 30.4656 21.0214 30.427 21.4787C30.3885 21.9361 30.5176 22.3918 30.7904 22.7609C31.0632 23.13 31.461 23.3873 31.9095 23.4847L36.6802 24.0247L43.7012 43.1062L33.8448 72.6285L17.4175 24.0247L22.5032 23.4847C22.9487 23.4153 23.3548 23.1889 23.6481 22.8465C23.9414 22.504 24.1026 22.0679 24.1026 21.617C24.1026 21.1661 23.9414 20.7301 23.6481 20.3876C23.3548 20.0451 22.9487 19.8187 22.5032 19.7494C22.5032 19.7494 15.2121 20.3344 10.4865 20.3344H7.38104C10.9539 14.8833 15.6683 10.2732 21.198 6.82302C26.7278 3.3728 32.9411 1.16477 39.4081 0.351631C45.8751 -0.461513 52.4416 0.139633 58.6535 2.1135C64.8654 4.08736 70.5743 7.38683 75.3856 11.7837H74.8006C72.7433 11.8427 70.793 12.7137 69.3761 14.2063C67.9593 15.699 67.1911 17.6919 67.2395 19.7494C67.7393 23.6212 69.2965 27.2805 71.7401 30.3252C74.1467 34.0235 75.4431 38.334 75.4757 42.7462M45.8615 48.9117L59.7234 86.8046L60.0385 87.4347C51.1347 90.5888 41.4605 90.8409 32.4046 88.1547L45.9065 48.9117M84.5219 23.3947C90.1346 33.7038 91.4971 45.7977 88.319 57.0971C85.1408 68.3965 77.6735 78.0072 67.5095 83.8794L81.2815 44.1413C83.4726 39.0628 84.6499 33.6051 84.747 28.075L84.4319 23.5747" fill="#EB7203"/>
</svg>
